<svg xmlns="http://www.w3.org/2000/svg" width="469" height="337" viewBox="0 0 469 337">
    <g fill="none" fill-rule="evenodd">
        <path d="M-95-3h680v350H-95z"/>
        <g fill="#9B9B9B" opacity=".101">
            <path d="M50.95 273.72c46.089 37.692 107.708 57.968 168.588 51.92 59.317-5.894 105.338-54.655 126.692-104.543 11.959-27.937 15.678-58.962 9.382-88.548-5.748-27.014-21.438-51.55-40.046-72.284-36.344-40.494-92.688-65.864-149.012-58.292C110.226 9.546 56.122 53.34 30.292 100.1c-13.476 24.397-19.284 52.449-20.926 79.753-1.5 24.895 3.757 50.52 22.257 69.095 3.766 3.782 9.755-1.925 6-5.698-23.253-23.344-21.92-57.656-17.086-87.324 5.407-33.186 20.07-62.647 43.793-87.502 21.872-22.914 49.011-42.103 79.734-52.732 30.064-10.403 62.097-8.8 91.965 1.193 60.44 20.226 110.986 77.87 114.192 139.346 3.278 62.837-42.238 131.842-103.96 155.231-31.57 11.966-69.954 8.176-102.082.36-32.182-7.828-62.117-23.263-87.23-43.801-4.121-3.371-10.15 2.3-6 5.698"/>
            <path d="M300.182 267.545c25.7-40.705 50.636-84.718 35.741-133.327-12.907-42.122-49.396-78.302-86.746-102.34-3.027-1.948-5.854 2.708-2.852 4.64 36.055 23.206 68.135 56.334 82.99 95.75 17.847 47.362-8.964 92.886-34.017 132.565-1.88 2.978 3.011 5.677 4.884 2.712M219.434 25.519c-17.856-7.531-39.272-4.648-58.242-3.563-3.624.207-3.644 5.58 0 5.372 17.547-1.006 38.89-4.128 55.387 2.83 3.303 1.392 6.183-3.236 2.855-4.64M46.396 235.987c-11.197-31.15-11.857-63.97-2.016-95.523 10.104-32.39 33.069-59.938 54.561-86.172 2.21-2.699-1.762-6.53-4-3.799-21.605 26.372-42.968 53.102-54.783 84.935-12.148 32.731-10.938 69.379.783 101.985 1.172 3.26 6.636 1.861 5.455-1.426M63.58 268.009a5259.241 5259.241 0 0 1 34.56 22.053c3.03 1.948 5.855-2.708 2.855-4.64a5319.717 5319.717 0 0 0-34.56-22.05c-3.044-1.927-5.872 2.727-2.854 4.637"/>
            <path d="M316.976 188.042c3.486-30.989-4.815-61.578-23.61-87.116-1.453-1.972-4.887-.096-3.42 1.898 18.446 25.06 26.491 54.818 23.07 85.218-.27 2.408 3.69 2.385 3.96 0"/>
            <path d="M306.944 153.566c-2.23-13.415-7.567-25.712-15.931-36.73-1.477-1.946-4.914-.073-3.418 1.9 8.169 10.762 13.352 22.725 15.53 35.83.399 2.39 4.213 1.372 3.82-1M218.213 244.012c38.896-8.726 61.257-45.668 49.828-82.028-.728-2.318-4.55-1.33-3.819 1 10.832 34.456-10.235 69.142-47.061 77.403-2.484.557-1.432 4.183 1.052 3.625M234.045 100.338c-10.71-13.304-27.013-23.426-44.985-16.918-2.36.855-1.337 4.49 1.052 3.627 16.24-5.883 30.827 3.154 40.514 15.188 1.527 1.897 4.968.028 3.419-1.897M176.076 241.74c-11.112 4.917-21.784-1.306-29.766-8.478-1.855-1.663-4.658.99-2.8 2.66 9.45 8.487 21.739 14.74 34.564 9.065 2.312-1.023.3-4.265-1.998-3.246M7.22 100.209c14.233-28.632 37.002-51.813 66.143-67.205 3.188-1.684.337-6.323-2.855-4.639C40.602 44.162 16.949 68.101 2.336 97.497c-1.547 3.114 3.328 5.842 4.885 2.712M5.682 67.774c6.222-11.013 16.072-19.414 28.404-23.862 3.376-1.216 1.914-6.409-1.502-5.178C18.877 43.674 7.744 52.77.798 65.063c-1.724 3.053 3.158 5.764 4.884 2.711M434.436 135.636c21.944-18.574 34.364-45.162 33.962-73.119-.271-18.813-8.555-54.013-32.907-52.376-10.927.734-24.203 11.42-32.362 18.265-9.579 8.035-14.458 20.532-16.857 32.19-4.923 23.921-2.175 57.176 18.93 71.342 3.501 2.35 7.054-3.513 3.563-5.855C390.883 114.08 389.902 86.928 392 66.838c2.455-23.52 19.193-41.636 41.521-49.55 13.23-4.69 20.663 12.922 23.968 22.185 3.542 9.922 4.594 20.65 4.058 31.313-1.165 23.204-13.74 44.995-31.646 60.153-3.386 2.865 1.172 7.543 4.536 4.697"/>
            <path d="M429.02 133.705c-4.61 35.554-11.048 70.909-18.426 106.129-3.721 17.769-7.721 35.493-11.813 53.2a4879.196 4879.196 0 0 1-6.213 26.483c-1.28 5.407-2.098 10.675-9.036 9.2-4.15-.884-8.194-2.136-12.21-3.435-4.05-1.313-6.02 5.186-1.98 6.495 5.142 1.664 15.286 6.555 21.002 4.331 6.614-2.571 7.14-8.643 8.637-14.946 4.981-20.98 9.842-41.983 14.455-63.03 9.044-41.267 16.878-82.759 22.289-124.484.56-4.312-6.15-4.22-6.705.057"/>
            <path d="M405.775 129.141l-40.66 196.875c-.873 4.227 5.53 5.924 6.413 1.645l40.66-196.875c.873-4.227-5.53-5.924-6.413-1.645M391.457 313.018c.678-3.618 6.3-34.586-3.076-29.31-1.7.956-2.397 3.401-3.031 5.04-1.555 4.012-2.64 8.168-3.526 12.34-1.101 5.183-3.642 14.026.9 17.811.523.435 1.206.623 1.867.238 2.692-1.559 5.047-3.04 6.696-5.743 1.075-1.756-1.578-3.283-2.655-1.52-1.363 2.232-3.29 3.295-5.467 4.557.622.079 1.244.158 1.868.24-3.23-2.691-.882-11.287-.216-14.815.677-3.593 1.729-7.124 2.9-10.607 1.038-3.095 3.018-1.715 2.966.834-.038 1.874-.162 3.749-.286 5.624-.32 4.866-1.03 9.724-1.933 14.543-.37 1.973 2.618 2.769 2.993.768M431.36 96.272c8.992-12.448 19.625-27.08 21.563-42.518 1.852-14.766-2.003-28.561-8.045-41.54-.835-1.797-3.618-.215-2.788 1.566 5.47 11.75 9.007 24.018 8.032 37.378-1.153 15.812-12.261 30.918-21.418 43.592-1.208 1.673 1.452 3.188 2.656 1.522M431.04 8.503a37.396 37.396 0 0 0-11.378 9.027c-1.328 1.558.776 3.765 2.117 2.192 3.029-3.554 6.553-6.374 10.688-8.514 1.835-.948.397-3.648-1.427-2.705M411.88 29.688c-8.121 14.163-13.064 36.907-5.935 51.502.87 1.78 3.652.201 2.788-1.567-6.566-13.443-1.724-35.29 5.802-48.413 1.021-1.783-1.627-3.314-2.655-1.522"/>
        </g>
        <text fill="#4A4A4A" font-family="OpenSans-SemiBold, Open Sans" font-size="46" font-weight="500" transform="translate(-95 -3)">
            <tspan x="241.115" y="169">404</tspan>
        </text>
        <text fill="#000" font-family="OpenSans-SemiBold, Open Sans" font-size="20" font-weight="500" transform="translate(-95 -3)">
            <tspan x="221.552" y="201">NOT FOUND</tspan>
        </text>
    </g>
</svg>
