<svg xmlns="http://www.w3.org/2000/svg" width="529" height="645" viewBox="0 0 529 645">
    <defs>
        <path id="a" d="M.465 235.498h268.573V.134H.465v235.364z"/>
    </defs>
    <g fill="none" fill-rule="evenodd" opacity=".15">
        <path fill="#FFF" d="M25.921 638.759c.952-4.894 8.158-3.494 7.206 1.4-.95 4.893-8.157 3.492-7.206-1.4M24.68 614.369c.95-4.893 8.157-3.492 7.206 1.4-.952 4.894-8.157 3.493-7.206-1.4M44.856 618.29c.951-4.892 8.157-3.491 7.206 1.401-.951 4.894-8.157 3.493-7.206-1.4M302.25 376.452l.197-1.012c.402-2.068 2.376-3.475 4.34-3.093 1.963.381 3.268 2.425 2.866 4.494l-.197 1.012c-.402 2.068-2.377 3.475-4.34 3.093-1.965-.382-3.268-2.425-2.866-4.494M284.237 361.402c.951-4.894 8.157-3.493 7.206 1.401-.951 4.892-8.157 3.492-7.206-1.4M309.088 351.533c.95-4.892 8.157-3.491 7.206 1.401-.952 4.894-8.158 3.493-7.206-1.4M191.666 39.988L191.47 41c-.402 2.067-2.376 3.475-4.34 3.094-1.965-.382-3.268-2.428-2.866-4.495l.196-1.012c.402-2.068 2.376-3.475 4.34-3.093 1.965.382 3.268 2.426 2.866 4.494M196.431 5.217l-.196 1.012c-.402 2.069-2.376 3.476-4.34 3.094-1.965-.382-3.268-2.426-2.866-4.494l.197-1.012c.401-2.067 2.376-3.476 4.34-3.094 1.964.382 3.267 2.427 2.865 4.494M163.783 16.72c.952-4.894 8.157-3.493 7.206 1.401-.95 4.893-8.157 3.492-7.206-1.4M173.392 198.12c.95-4.894 8.157-3.493 7.205 1.4-.95 4.893-8.156 3.493-7.205-1.4M143.782 196.563c.95-4.892 8.157-3.492 7.206 1.4-.952 4.895-8.158 3.494-7.206-1.4M153.11 174.23c.95-4.893 8.156-3.493 7.205 1.4-.95 4.892-8.157 3.492-7.206-1.4M416.296 61.604c.95-4.893 8.156-3.492 7.206 1.4-.951 4.893-8.157 3.492-7.206-1.4M437.256 39.693l.96.187c1.964.381 3.268 2.425 2.866 4.494-.402 2.068-2.376 3.475-4.34 3.093l-.96-.186c-1.965-.382-3.268-2.426-2.866-4.494.402-2.069 2.376-3.476 4.34-3.094M407.368 35.721c.951-4.894 8.157-3.493 7.206 1.4-.951 4.893-8.157 3.493-7.206-1.4M378.125 60.483l-.197 1.013c-.401 2.066-2.376 3.475-4.34 3.093-1.963-.381-3.267-2.427-2.866-4.494l.197-1.012c.402-2.069 2.378-3.475 4.34-3.094 1.965.382 3.268 2.426 2.866 4.494M212.08 258.135l-.198 1.012c-.401 2.067-2.376 3.475-4.34 3.093-1.964-.382-3.267-2.427-2.865-4.494l.196-1.012c.402-2.068 2.376-3.475 4.34-3.093 1.965.381 3.268 2.425 2.866 4.494M45.378 271.926c.95-4.892 8.156-3.492 7.205 1.4-.95 4.895-8.157 3.494-7.205-1.4M217.617 514.336l.197-1.012c.401-2.067 2.376-3.476 4.34-3.094 1.964.382 3.267 2.427 2.866 4.494l-.197 1.013c-.402 2.068-2.376 3.475-4.34 3.093-1.965-.382-3.268-2.426-2.866-4.494M189.058 491.986c.95-4.893 8.157-3.492 7.206 1.4-.952 4.894-8.158 3.494-7.206-1.4M180.096 563.737c.95-4.893 8.156-3.492 7.205 1.4-.95 4.893-8.156 3.492-7.205-1.4M486.142 322.955l.196-1.01c.402-2.069 2.376-3.476 4.34-3.094 1.965.382 3.268 2.426 2.866 4.494l-.196 1.011c-.402 2.068-2.376 3.475-4.34 3.093-1.965-.381-3.268-2.425-2.866-4.494M449.525 295.89c.951-4.893 8.157-3.492 7.206 1.401-.951 4.893-8.157 3.492-7.206-1.4M469.746 289.322c.95-4.893 8.156-3.492 7.205 1.4-.95 4.893-8.156 3.492-7.205-1.4M345.2 586.38c.95-4.892 8.156-3.491 7.205 1.401-.95 4.893-8.157 3.492-7.206-1.4M338.339 616.544c.95-4.892 8.157-3.492 7.206 1.4-.951 4.893-8.157 3.492-7.206-1.4M-53.72 563.457a732.593 732.593 0 0 0 130.126-24.54 687.221 687.221 0 0 0 30.782-9.55c9.787-3.284 19.317-7.6 24.762-17.299 5.353-9.534 6.59-22.69 6.983-33.41.415-11.268-1.349-22.466-4.433-33.155-1.023-3.552 4.202-5.52 5.225-1.966 5.895 20.436 7.006 43.824-.147 64.403-7.646 22.001-29.067 26.608-48.308 32.543C44.043 555.05-4.513 564.53-53.35 569.224c-3.555.342-3.912-5.427-.37-5.767"/>
        <path fill="#FFF" d="M134.36 444.77c.505-11.567 11.46-15.51 20.647-18.07 16.56-4.618 34.23-7.924 50.232-14.46 5.167-2.112 11.77-9.218 6.18-15.137-3.983-4.219-11.174-1.337-15.622.343-8.092 3.055-16.12 5.823-24.498 7.837-6.897 1.658-13.885 2.723-20.905 3.448-5.96.615-14.365 1.803-19.2-2.899-20.531-19.966-7.737-70.398-42.62-76.447-8.054-1.395-17.55 1.457-25.548 2.688a9868.899 9868.899 0 0 0-82.861 13.129c-3.534.574-3.87-5.197-.37-5.767 19.038-3.098 38.084-6.14 57.136-9.13a9564.004 9564.004 0 0 1 28.585-4.44c8.057-1.238 16.034-2.82 24.165-2.17 13.272 1.061 22.155 13.565 27.24 25.11 3.342 7.585 4.832 16.071 6.605 24.191 2.066 9.468 4.262 23.717 12.647 29.295 3.951 2.63 11.878.877 16.393.41 4.238-.436 8.45-1.159 12.646-1.948 9.003-1.697 17.813-4.483 26.411-7.797 7.753-2.988 26.1-7.697 27.239 6.61 1.23 15.44-14.424 19.288-25.564 22.395l-28.091 7.831c-6.994 1.95-24.886 4.065-25.341 14.478-.16 3.693-5.667 4.221-5.506.5M66.402 507.548c-5.214-1.632-10.019-4.196-12.673-9.361-1.99-3.874 5.191-11.664 6.953-14.544 9.536-15.569 18.653-31.55 28.705-46.761 4.11-6.222 16.991 2.833 13.822 8.573-4.533 8.21-10.777 15.586-15.764 23.544-5.08 8.11-9.658 16.547-13.947 25.131-1.106 2.215-4.39.542-3.278-1.684a327.889 327.889 0 0 1 15.472-27.562c2.628-4.195 5.407-8.285 8.229-12.338 1.794-2.576 7.225-8.212 3.626-11.817-5.236-5.248-6.955 1.111-8.969 4.4l-16.924 27.636-9.231 15.075-4.617 7.536c-2.515 4.11 7.643 7.85 9.333 8.378 2.236.7 1.521 4.502-.737 3.794"/>
        <path fill="#FFF" d="M66.685 500.222c.476-2.448 4.079-1.748 3.603.7-.476 2.446-4.079 1.746-3.603-.7M45.145 492.373c-2.432-1.723-4.866-3.446-7.297-5.17-1.944-1.374.529-4.284 2.455-2.92 2.432 1.72 4.865 3.444 7.297 5.167 1.943 1.377-.53 4.287-2.455 2.923"/>
        <path fill="#FFF" d="M45.633 489.282c4.245-9.362 7.996-18.904 11.219-28.69 1.486-4.514 2.78-9.092 4.023-13.682.488-1.84.955-3.682 1.403-5.532.746-3.005 2.865-5.699-1.091-6.419a4650.46 4650.46 0 0 1-4.569-.833c-1.446-.262-2.913 6.314-3.19 7.13l-4.853 14.336-4.855 14.334c-1.62 4.784-4.879 10.812-4.383 15.9.241 2.476-3.43 2.794-3.67.333-.737-7.567 4.342-16.641 6.716-23.651l10.68-31.536c.273-.805 1.282-1.187 2.007-1.055 2.759.503 9.886.279 11.665 3.068 2.28 3.578-1.326 11.036-2.257 14.625-3.867 14.9-9.232 29.386-15.566 43.355-1.026 2.264-4.305.58-3.279-1.683M29.273 479.17l-8.856-1.76c-1.274-.254-1.678-1.571-1.271-2.738 4.627-13.288 8.164-26.831 10.695-40.683.175-.96 1.22-1.837 2.17-1.547l8.662 2.638c.88.269 1.753 1.168 1.433 2.247l-11.839 40.015c-.7 2.365-4.31 1.689-3.603-.7l11.839-40.015 1.433 2.247-8.662-2.638 2.17-1.547c-2.593 14.196-6.28 28.055-11.02 41.666l-1.27-2.738 8.857 1.759c2.321.46 1.584 4.254-.738 3.794M38.615 411.283c9.44-4.07 16.844-12.435 24.215-19.618 7.37-7.184 14.48-14.657 21.43-22.286l.141 2.72c-10.239-7.54-23.562-6.06-33.57 1.646-11.18 8.605-13.846 25.402-10.677 38.445.581 2.387-2.9 3.709-3.482 1.309-3.799-15.627.023-32.157 12.132-42.933 10.724-9.542 27.097-9.457 38.053-1.39.791.585.787 2.015.142 2.723a564.916 564.916 0 0 1-25.46 26.192c-6.66 6.422-13.283 13.176-21.742 16.822-2.215.953-3.38-2.683-1.182-3.63"/>
        <path fill="#FFF" d="M42.753 408.906c-.812-10.24 1.527-23.627 10.146-30.207 7.854-5.996 17.751-6.95 26.132-2.026 2.04 1.199.389 4.68-1.67 3.473-7.629-4.483-16.741-3.532-23.474 2.692-6.622 6.12-8.14 17.207-7.463 25.736.196 2.48-3.475 2.802-3.67.332"/>
        <path fill="#FFF" d="M49.948 403.663c-1.257-12.24 8.182-21.983 19.744-20.975 2.359.205 1.599 3.998-.738 3.794-9.277-.808-16.316 7.29-15.336 16.848.254 2.474-3.418 2.79-3.67.333M41.454 529.953c-17.177-10.577-34.353-21.154-51.53-31.729-2.011-1.24-.363-4.724 1.67-3.472l51.528 31.728c2.013 1.24.365 4.725-1.668 3.473"/>
        <path fill="#FFF" d="M43.843 529.394c-3.257 6.77-10.19 8.638-16.63 10.714-8.175 2.638-17.997 4.247-26.09.8-17.547-7.471-18.92-27.863-12.628-44.59.876-2.326 4.149-.628 3.279 1.684-5.228 13.9-4.97 30.87 8.877 38.524 6.849 3.785 15.537 2.52 22.788.706 5.79-1.448 14.183-3.405 17.126-9.523 1.074-2.235 4.356-.558 3.278 1.685"/>
        <path fill="#FFF" d="M35.922 528.766c-9.369 4.138-21.73 8.521-30.984 1.97-9.412-6.66-9.703-18.276-8.76-29.271.212-2.48 3.812-1.752 3.602.7-.756 8.823-.856 18.102 5.854 24.405 7.892 7.413 20.691 2.283 29.106-1.434 2.207-.976 3.371 2.661 1.182 3.63"/>
        <path fill="#FFF" d="M29.545 522.653c-12.333 9.065-30.373-2.18-25.712-18.102.692-2.37 4.303-1.69 3.603.7-3.704 12.656 10.253 21.45 20.082 14.224 1.963-1.442 3.987 1.737 2.027 3.178M22.722 361.98a934.405 934.405 0 0 1-59.914 14.658c-1.635.344-1.786-2.352-.174-2.69a924.623 924.623 0 0 0 59.261-14.509c1.602-.449 2.437 2.09.827 2.54M95.27 348.421l-46.394 8.849c-1.642.314-1.794-2.382-.172-2.69l46.393-8.85c1.64-.314 1.794 2.381.172 2.691M47.917 348.133a170.077 170.077 0 0 1-21.7 6.15c-1.633.348-1.784-2.347-.173-2.69a165.017 165.017 0 0 0 21.046-6c1.581-.565 2.406 1.977.827 2.54M19.288 417.955C22.7 430.23 10.114 435.043.898 436.34c-17.873 2.52-36.045 2.344-53.878.444-1.648-.175-1.119-2.83.517-2.655 10.345 1.102 75.512 7.048 69.313-15.257-.462-1.662 1.975-2.582 2.438-.918"/>
        <path fill="#FFF" d="M-13.584 426.518c7.63 2.151 14.905-.523 19.718-7.245.126.699.25 1.399.374 2.097-6.551-4.006-16.384-1.873-23.66-.793-7.482 1.111-14.785 3.326-21.895 6.049-1.574.6-2.396-1.942-.828-2.543a118.32 118.32 0 0 1 25.079-6.572c7.153-1.062 16.032-2.51 22.472 1.43.75.457.902 1.359.375 2.096-5.32 7.43-13.716 10.515-22.151 8.137-1.584-.447-1.08-3.105.516-2.656M123.142 498.534a369.583 369.583 0 0 1-30.21 4.856c-1.658.196-1.821-2.496-.172-2.692a369.17 369.17 0 0 0 30.21-4.856c1.637-.332 1.787 2.363.172 2.692M120.852 417.521l-19.199 2.516c-1.656.217-1.818-2.475-.174-2.69l19.201-2.517c1.656-.217 1.817 2.476.172 2.691M80.347 419.758L69.38 422.39c-1.607.386-2.448-2.151-.827-2.54l10.966-2.63c1.606-.386 2.447 2.15.827 2.54M93.726 418.543l-2.288.464c-.693.14-1.328-.554-1.372-1.23-.05-.791.508-1.322 1.2-1.462l2.288-.462c.691-.141 1.327.553 1.37 1.229.051.79-.508 1.321-1.198 1.461M250.472 331.606c-2.567 6.416-10.758 7.557-16.453 9.079-8.063 2.154-16.543 2.868-24.79 2.394-18.782-1.08-36.49-7.402-52.867-16.621-36.698-20.66-62.83-56.512-93.552-84.993-2.637-2.445 1.038-6.836 3.684-4.383 26.618 24.678 49.516 53.733 78.7 75.32 14.582 10.787 31.253 18.755 48.767 22.802 8.195 1.895 16.608 2.486 25.019 2.052 4.457-.23 8.905-.993 13.266-2.015 3.422-.801 11.713-2.175 13.308-6.162 1.386-3.463 6.298-.923 4.918 2.527"/>
        <path fill="#FFF" d="M62.494 235.877c12.348-9.438 18.761-24.924 29.701-35.87 2.576-2.578 6.714 1.171 4.109 3.778-11.318 11.327-17.967 27.073-30.77 36.86-2.908 2.22-5.937-2.553-3.04-4.768"/>
        <path fill="#FFF" d="M246.762 332.946c-21.14-11.29-38.974-29.72-57.2-45.332A35873.508 35873.508 0 0 1 5.186 128.586c-2.714-2.358.968-6.742 3.683-4.384a35964.484 35964.484 0 0 0 208.887 180.006c10.027 8.574 19.901 17.33 31.509 23.53 3.138 1.676.65 6.891-2.503 5.208M223.192 328.089c-36.734 6.554-67.187-17.85-93.442-40.744-1.264-1.102.454-3.148 1.719-2.045 25.757 22.46 55.47 46.536 91.55 40.098 1.646-.294 1.802 2.4.173 2.69M122.607 282.023a39654.07 39654.07 0 0 0-9.558-8.261c-1.269-1.097.45-3.143 1.719-2.046l9.557 8.261c1.27 1.097-.45 3.143-1.718 2.046M107.228 268.841c-2.839-.955-5.173-2.86-6.529-5.67-.734-1.525 1.405-3.073 2.15-1.533 1.028 2.134 2.692 3.806 4.895 4.547 1.55.52 1.052 3.183-.516 2.656M370.593 524.677a2144.372 2144.372 0 0 1-102.645-98.595c-1.671-1.714.77-4.65 2.455-2.921a2143.803 2143.803 0 0 0 102.645 98.593c1.783 1.603-.669 4.529-2.455 2.923M377.184 518.574a2144.464 2144.464 0 0 1-102.511-98.475c-1.67-1.713.77-4.65 2.456-2.923a2143.579 2143.579 0 0 0 102.51 98.475c1.785 1.604-.668 4.528-2.455 2.923"/>
        <path fill="#FFF" d="M270.316 426.125c-8.295 8.698-16.119-1.146-21.89-7.408-9.982-10.832-19.483-22.15-28.629-33.767-1.497-1.9 1.587-4.07 3.07-2.186a611.624 611.624 0 0 0 18.898 22.845c3.751 4.316 18.587 25.571 25.812 17.996 1.683-1.764 4.437.738 2.739 2.52M274.448 417.041c8.782-5.225-11.009-22.087-14.659-26.03l-20.09-21.713c-1.623-1.755.815-4.695 2.455-2.923 11.384 12.305 22.77 24.608 34.154 36.91 4.33 4.682 7.258 12.714.167 16.933-2.067 1.23-4.11-1.937-2.027-3.177"/>
        <path fill="#FFF" d="M248.078 410.096c-8.166-9.69-16.33-19.379-24.496-29.067l2.597-.202c-1.261 1.354-2.217 2.934-3.478 4.289-1.664 1.79-4.417-.715-2.738-2.52 1.26-1.353 2.217-2.934 3.477-4.29.638-.685 1.915-1.01 2.598-.2 8.164 9.69 16.33 19.378 24.495 29.068 1.533 1.819-.898 4.768-2.455 2.922M259.143 399.896l-13.787-14.784c-3.471-3.724-8.453-7.44-9.988-12.58-.187-.63-.095-1.42.372-1.915l3.817-4.04c1.676-1.774 4.43.73 2.738 2.519l-2.608 2.762c-1.706 1.807-.995.408 1.209 2.914 1.337 1.523 2.768 2.97 4.15 4.45 5.517 5.917 11.036 11.834 16.553 17.753 1.63 1.748-.808 4.688-2.456 2.92"/>
        <path fill="#FFF" d="M251.29 405.22c-7.724-8.417-15.449-16.832-23.173-25.247-.694-.755-.844-1.866-.143-2.72 3.314-4.03 5.755-3.893 9.353-.916 2.898 2.4 4.984 5.994 7.328 8.947 4.093 5.158 8.41 10.115 12.824 14.97 1.606 1.768-.83 4.71-2.455 2.922a354.277 354.277 0 0 1-12.028-13.955c-2.44-2.983-4.618-6.327-7.223-9.145-2.028-2.195-2.486-3.433-5.06-.305l-.14-2.72 23.173 25.246c1.615 1.76-.823 4.702-2.456 2.923"/>
        <path fill="#FFF" d="M254.881 400.455c.627-.823 1.51-1.481 2.307-2.11.825-.65 1.671-1.241 2.592-1.724.906-.476 2.039.26 2.334 1.16.351 1.077-.25 1.997-1.152 2.468.523-.273.12-.053.017.008-.18.112-.353.231-.526.35-.423.29-.833.6-1.238.915-.358.279-.708.57-1.05.869-.17.151-.177.158-.02.015l-.216.211a3.69 3.69 0 0 0-.308.358c-.631.828-1.88.863-2.597.2-.773-.71-.774-1.89-.143-2.72M253.887 405.018c-1.405 1.385-2.004 3.437-3.412 4.826-.736.725-1.798.938-2.597.201-.692-.637-.88-1.992-.142-2.72 1.404-1.386 2.003-3.438 3.411-4.826.737-.726 1.798-.939 2.599-.202.69.638.88 1.992.14 2.72M316.323 540.932c8.887 23.383 2.045 50.575-15.32 68.153-17.337 17.553-43.845 22.266-66.203 15.896-3.391-.966-2.312-6.664 1.106-5.69 21.024 5.988 44.25 1.68 60.99-13.985 16.493-15.433 22.182-41.413 14.202-62.408-1.313-3.456 3.923-5.394 5.225-1.966"/>
        <path fill="#FFF" d="M234.58 625.559c-4.841 3.763-12.001 7.929-17.505 3.163-5.684-4.923-2.009-14.232-.826-20.656.677-3.678 6.08-2.623 5.404 1.05l-1.39 7.553c-.37 2.006-1.619 5.389-.143 7.117 3.147 3.684 8.725-.898 11.422-2.994 2.89-2.247 5.917 2.53 3.038 4.767"/>
        <path fill="#FFF" d="M215.912 609.708c-9.577-23.21 4.048-46.041 17.936-63.98 7.431-9.6 14.356-18.021 26.085-21.23 12.086-3.306 24.724.442 36.237 3.849 3.378.998 2.301 6.698-1.106 5.69-9.638-2.851-19.197-5.52-29.37-4.729-11.784.916-18.924 9.035-26.02 18.012-13.276 16.792-27.708 38.197-18.537 60.422 1.407 3.41-3.833 5.339-5.225 1.966"/>
        <path fill="#FFF" d="M311.57 542.792c-.55-1.58-.786-3.111-.625-4.816.223-2.378 1.563-5.972-.143-7.98-3.763-4.434-10.256 1.28-13.33 3.898-2.793 2.377-5.807-2.41-3.04-4.767 4.672-3.979 10.873-8.369 17.024-5.496 2.549 1.19 4.245 2.975 5.275 5.693 1.418 3.745-1.218 7.82.064 11.503 1.216 3.493-4.015 5.442-5.225 1.965M287.983 540.907c-16.332-2.562-37.498 6.26-47.952 19.762-1.058 1.364-2.973-.4-1.917-1.764 11.097-14.334 33.11-23.363 50.385-20.654 1.639.257 1.118 2.914-.516 2.656M234.505 568.217a53.93 53.93 0 0 0-6.58 10.948c-.716 1.585-3.01.407-2.294-1.178a56.951 56.951 0 0 1 6.956-11.534c1.058-1.363 2.975.402 1.918 1.764M258.398 596.28c.476-2.446 4.079-1.745 3.603.7-.475 2.447-4.078 1.747-3.603-.7M242.162 592.6c.476-2.448 4.079-1.747 3.603.7-.475 2.447-4.078 1.746-3.603-.7M249.596 608.219c.475-2.448 4.078-1.748 3.603.7-.476 2.446-4.079 1.746-3.603-.7M257.406 580.864c.476-2.447 4.079-1.746 3.603.7-.475 2.446-4.078 1.746-3.603-.7M284.09 586.06c.476-2.445 4.079-1.745 3.603.701-.475 2.446-4.078 1.746-3.602-.7M238.35 746.52c18.576-26.97-.803-62.496-19.61-82.05-18.88-19.629-44.576-31.068-70.924-34.512-55.332-7.231-109.507 28.241-138.985 76.388-1.917 3.129-6.859.645-4.917-2.526 32.523-53.12 91.068-88.642 151.396-78.604 27.88 4.64 55.002 19.48 73.392 41.834 17.975 21.85 32.248 56.4 13.757 83.25-2.099 3.05-6.194-.75-4.108-3.78"/>
        <path fill="#FFF" d="M225.564 744.784c16.433-24.048-.242-55.292-16.947-72.92-16.967-17.906-40.35-28.204-64.203-31.158-48.884-6.053-96.51 25.464-122.546 67.911-1.28 2.085-4.575.43-3.279-1.683 28.632-46.68 79.96-77.818 133-69.093 25.374 4.175 48.87 17.841 65.58 37.997 15.463 18.653 26.644 48.77 11.135 71.465-1.394 2.038-4.123-.495-2.74-2.52M299.483 746.607a2824.691 2824.691 0 0 0 110.13-112.945l.212 4.08-25.321-29.106c-2.347-2.697 1.304-7.117 3.682-4.384l25.322 29.108c.965 1.108 1.353 2.845.213 4.082a2825.143 2825.143 0 0 1-110.13 112.944c-2.607 2.53-6.75-1.217-4.108-3.78"/>
        <path fill="#FFF" d="M263.714 722.907c40.62-38.97 79.957-79.382 120.577-118.352 2.618-2.512 6.761 1.233 4.108 3.78-40.62 38.97-79.958 79.381-120.576 118.352-2.62 2.511-6.762-1.234-4.11-3.78M400.063 622.684c9.818-11.544 20.623-19.812 32.83-28.265-.87-7.846-2.935-9.452-6.198-4.823a283.587 283.587 0 0 0-3.213 3.824c-2.942 3.532-6.015 6.941-9.118 10.318-5.087 5.534-10.524 11.953-16.568 16.336l1.093-3.366.2.579-3.498-1.74.543-.288-1.865 2.971-.059-.65c-.336-3.72 5.171-4.197 5.505-.5.02.216.039.434.06.65.127 1.406-.76 2.387-1.868 2.973l-.545.288c-1.37.727-3.038-.406-3.498-1.738l-.2-.58c-.421-1.22.077-2.629 1.092-3.365 9.893-7.175 18.52-18.346 26.384-27.786 4.197-5.038 12.327-11.075 17.587-3.926 4.791 6.512 1.42 12.67-4.543 16.8-11.166 7.733-21.026 15.501-30.013 26.068-2.388 2.808-6.504-.962-4.108-3.78M418.123 469.913c-11.387 2.627-22.334-1.31-31.462-8.195-9.43-7.113-19.6-19.536-21.564-31.968-3.924-24.827 12.506-55.583 36.132-62.684 10.773-3.237 23.038-1.787 33.336 2.097 12.637 4.765 21.073 12.18 25.933 25.435 9.334 25.462 2.752 56.552-22.889 68.461-3.286 1.527-5.025-3.932-1.773-5.444 22.637-10.513 26.49-36.537 20.176-58.758-6.2-21.809-29.5-29.97-49.64-27.077-21.536 3.093-35.487 28.908-36.426 49.906-.987 22.073 25.227 47.668 46.404 42.783 3.445-.795 5.25 4.641 1.773 5.444"/>
        <path fill="#FFF" d="M419.078 465a880.611 880.611 0 0 1 15.394 17.53l-4.543 1.667a820.997 820.997 0 0 1 4.09-24.385c.675-3.678 6.079-2.623 5.405 1.05a820.997 820.997 0 0 0-4.09 24.385c-.308 2.013-3.155 3.293-4.545 1.667a880.612 880.612 0 0 0-15.394-17.531c-2.398-2.66 1.257-7.074 3.683-4.384M446.927 438.991c-11.301 16.845-31.252 23.208-49.225 16-8.395-3.366-16.177-10.755-20.057-19.254-5.45-11.937-3.738-22.03 2.146-33.595 4.739-9.31 10.061-17.534 19.296-22.311 8.764-4.535 19.1-3.203 27.778.179 9.325 3.633 18.095 11.276 21.711 21.064 4.101 11.103 1.064 25.73-1.217 37.007-.493 2.442-4.097 1.744-3.602-.7 1.712-8.472 2.923-16.889 2.785-25.54-.2-12.53-7.266-20.337-17.032-26.223-8.28-4.99-18.03-6.08-27.209-3.014-9.496 3.173-14.75 12.623-19.23 21.221-5 9.593-6.818 18.192-2.935 28.43 3.397 8.953 11.094 15.43 19.236 19.264 16.04 7.553 34.963-.361 44.817-15.048 1.375-2.049 4.102.486 2.738 2.52"/>
        <path fill="#FFF" d="M419.611 457.53c-13.236 1.973-24.509-12.447-30.71-22.96-6.855-11.619-9.935-28.714-3.993-41.522 1.045-2.252 4.324-.572 3.279 1.683-5.52 11.898-1.987 26.747 3.783 37.652 4.894 9.249 16.28 22.958 27.396 21.303 2.36-.352 2.587 3.495.245 3.845M391.114 372.615c-1.648-5.32-2.471-10.893-1.994-16.532.435-5.153 7.241-6.206 11.273-7.143 3.897-.903 8.478-2.005 11.276 1.474 2.958 3.68 3.053 12.125 3.044 16.679-.007 3.715-5.512 4.23-5.505.5a55.274 55.274 0 0 0-.37-6.527c-.053-.46-1.092-7.195-1.776-7.218-4.865-.157-9.89 1.733-14.225 3.956.606-.73 1.21-1.464 1.816-2.196-.437 5.175.169 10.145 1.686 15.041 1.093 3.534-4.134 5.493-5.225 1.966M423.898 434.18c.788 2.31-1.827 3.818-3.682 3.197-2.223-.745-3.227-3.22-2.418-5.478.772-2.156 3.376-2.898 5.218-2.148 2.017.822 2.608 3.602 1.796 5.527-.678 1.604-2.972.423-2.296-1.178.601-1.42-.854-2.43-1.987-1.626-.598.424-.576 1.168-.248 1.736.152.261.432.504.713.598l.373.043c.22-.173.25-.091.092.246-.557-1.632 1.883-2.542 2.439-.916M418.608 414.064c-1.018 2.046-3.352 2.964-5.394 2.227-2.169-.784-3.027-3.247-2.577-5.5.488-2.434 2.772-3.917 5.027-3.841 1.044.034 2.625.408 3.246 1.382.37.579.255 1.489.291 2.157l.163 3.021c.092 1.738-2.477 1.967-2.57.233l-.242-4.53.425.907c-1.471-1.07-3.821-.313-3.91 1.754-.078 1.915 2.347 2.818 3.246 1.011.773-1.552 3.071-.38 2.295 1.179M434.273 420.79c-.892 2.613-4.43 2.688-6.404 1.772-2.242-1.04-3.093-3.957-2.48-6.326.669-2.586 3.51-3.498 5.74-2.672 2.423.896 3.681 3.715 2.956 6.307-.466 1.667-2.992 1.19-2.522-.49.329-1.174.097-2.43-.943-3.102-.756-.489-2.259-.508-2.697.438-.507 1.094-.034 2.44.753 3.178.719.678 2.887.936 3.302-.284.56-1.644 2.851-.45 2.295 1.178M210.283 130.434c2.344 12.06-16.311 6.198-21.89 5.489-17.269-2.196-34.537-4.39-51.806-6.587-20.558-2.613-60.598-3.651-59.016-35.08.186-3.688 5.693-4.22 5.505-.5-1.357 26.962 34.015 27.27 51.74 29.524l34.536 4.39c5.756.733 11.513 1.465 17.27 2.196 1.863.237 18.179 1.208 18.436 2.534-.7-3.6 4.52-5.597 5.225-1.966"/>
        <path fill="#FFF" d="M203.967 129.326c-23.73-7.548-48.927-4.668-73.258-8.594-11.257-1.816-23.301-5.213-33.57-10.333C90.324 107 86.966 99.45 89.782 91.995c1.318-3.489 6.228-.942 4.919 2.526-6.19 16.378 44.326 21.702 53.456 22.391 19.162 1.448 38.407.836 56.917 6.723 3.346 1.065 2.277 6.768-1.106 5.691"/>
        <path fill="#FFF" d="M89.487 93.508c-.996-7.61 10.54-6.746 15.154-7.299 10.91-1.31 21.91-1.173 32.796-.236 12.204 1.05 24.177 3.954 36.157 6.355 10.13 2.03 27.995 7.735 37.025.29l-.783 4.025c-3.464-4.27-12.776-4.28-17.658-5.134-5.592-.977-11.204-1.83-16.822-2.65-11.238-1.642-22.528-2.939-33.826-4.114-11.304-1.177-22.63-2.146-33.959-3.074-5.549-.455-11.004-1.02-16.48.558-5.767 1.662-6.973 6.952-8.065 12.302-.746 3.661-6.151 2.614-5.404-1.05 1.795-8.79 5.219-15.779 14.47-17.455 13.51-2.446 28.603.914 42.062 2.187 15.082 1.426 30.13 3.177 45.118 5.365 7.49 1.094 14.952 2.37 22.393 3.75 5.115.949 9.346 1.809 12.776 6.033 1.013 1.25.302 3.13-.783 4.024-5.54 4.568-11.997 4.332-18.65 3.936-11.373-.678-22.586-3.296-33.707-5.59-11.549-2.38-23.086-4.267-34.902-4.67-2.67-.091-31.467 1.481-31.405 1.947.484 3.696-5.027 4.16-5.507.5"/>
        <path fill="#FFF" d="M79.994 104.242c-3.255 2.149-7.7.704-9.25-2.972-2.04-4.835-.142-10.444 1.681-15.112.224-.574.928-1.08 1.516-1.08 2.828-.006 5.57.297 8.31.993 2.284.58 1.56 4.377-.738 3.794-2.421-.616-4.82-.948-7.326-.944l1.516-1.08c-.996 2.551-1.768 5.153-2.134 7.875-.32 2.371 1.219 7.448 4.399 5.348 2.02-1.335 4.054 1.839 2.026 3.178"/>
        <path fill="#FFF" d="M69.639 99.653a832.844 832.844 0 0 0-57.557-11.638c-2.337-.388-1.594-4.181.738-3.794a832.844 832.844 0 0 1 57.556 11.638c2.297.55 1.568 4.346-.737 3.794M70.99 92.714L6.19 79.836c-2.32-.46-1.585-4.254.738-3.793L71.727 88.92c2.321.46 1.585 4.255-.738 3.794M406.72 147.751c-3.057 24.046-16.154 45.037-36.107 57.591-13.427 8.447-42.122 18.753-52.146.782-4.499-8.063-3.04-22.358-1.946-31.27 1.283-10.463 7.88-19.652 15.021-26.702 14.655-14.465 39.431-27.793 59.139-19.374 3.27 1.396.756 6.6-2.503 5.208-16.7-7.133-36.35 4.642-49.592 15.35-15.505 12.536-20.628 32.69-15.97 52.113 2.758 11.508 18.625 8.677 26.692 6.76 8.643-2.051 16.711-6.234 24.005-11.51 15.873-11.478 25.508-30.376 28.003-49.998.471-3.71 5.872-2.635 5.404 1.05"/>
        <path fill="#FFF" d="M402.498 144.842c23.023-19.587 45.067-40.373 66.583-61.763 10.856-10.791 21.551-21.758 32.194-32.783 5.308-5.5 10.593-11.023 15.872-16.555 3.236-3.388 6.585-6.384 2.357-10.613-2.531-2.53-5.273-4.814-8.036-7.056-2.788-2.262.903-6.64 3.683-4.384 3.538 2.872 11.654 7.8 12.707 12.863 1.219 5.857-2.832 9.018-6.602 12.97-12.549 13.157-25.167 26.238-37.93 39.164-25.029 25.345-50.77 49.938-77.79 72.924-2.791 2.376-5.808-2.41-3.038-4.767"/>
        <path fill="#FFF" d="M388.87 130.519L509.412 11.363c2.588-2.558 6.728 1.19 4.108 3.78L392.98 134.299c-2.588 2.558-6.728-1.19-4.108-3.78M512.149 35.904c-2.247 2.141-21.563 20.337-22.138 11.285-.104-1.641 1.305-3.257 2.173-4.459 2.122-2.941 4.563-5.617 7.106-8.159 3.16-3.159 8.245-9.016 13.008-7.542.547.169.993.566 1.025 1.21.134 2.62.167 4.965-.985 7.372-.75 1.567-3.047.392-2.294-1.18.952-1.988.818-3.839.71-5.957l1.028 1.21c-3.386-1.048-8.386 4.56-10.575 6.65-2.23 2.13-4.243 4.494-6.169 6.921-1.71 2.156.174 2.922 1.952 1.715 1.308-.887 2.577-1.836 3.846-2.785 3.294-2.46 6.404-5.193 9.396-8.044 1.225-1.169 3.16.58 1.917 1.763M390.601 151.701c-4.672 12.075-10.137 26.313-20.162 34.772-9.591 8.09-21.116 11.699-33.068 13.387-1.654.234-1.814-2.46-.173-2.69 10.82-1.529 21.12-4.66 30.118-11.485 10.652-8.076 16.232-22.868 20.99-35.162.628-1.623 2.92-.437 2.295 1.178M328.393 191.78a31.53 31.53 0 0 1 1.158-12.192c.492-1.654 3.019-1.18 2.522.49-1.123 3.775-1.498 7.561-1.112 11.468.172 1.733-2.398 1.956-2.568.233M334.574 168.503c6.286-12.246 20.099-26.185 33.692-27.847 1.658-.202 1.82 2.49.173 2.692-12.522 1.53-25.745 14.985-31.57 26.333-.79 1.541-3.09.371-2.295-1.178"/>
        <path fill="#FFF" d="M426.338 128.164c19.273 35.829 24.84 79.805 12.845 119.852-11.687 39.02-50.395 63.53-86.642 71.35-20.299 4.38-41.594 2.829-60.618-5.252-17.37-7.378-31.783-21.101-43.264-36.286-22.423-29.658-32.095-70.76-19.672-107.553C241.41 133.48 277.84 102.9 312.574 91.67c18.122-5.858 37.695-6.096 56.224-3.638 16.894 2.24 33.398 9.108 43.445 23.938 2.045 3.02-2.564 6.292-4.605 3.281-12.626-18.64-35.816-22.22-56.346-22.845-22.965-.7-44.638 5.293-64.403 17.965-18.222 11.684-34.631 27.386-45.766 46.608-10.899 18.81-14 40.505-11.191 61.842 5.686 43.179 37.761 84.599 78.58 94.765 41.72 10.391 93.942-11.142 117.678-49.493 12.142-19.617 14.604-45.857 13.55-68.426-1.054-22.607-7.504-44.7-18.006-64.222-1.724-3.204 2.867-6.509 4.604-3.281"/>
        <path fill="#FFF" d="M389.7 294.535c-30.654 11.931-63.427 22.919-94.09 6.59-26.572-14.15-46.082-43.343-57.336-71.53-.913-2.284 2.58-3.574 3.483-1.308 10.865 27.21 28.904 53.048 53.406 68.15 29.442 18.148 63.473 6.1 93.355-5.532 2.243-.873 3.415 2.76 1.182 3.63M237.886 208.816c-2.723-12.96 2.003-26.949 5.204-39.531.611-2.405 4.218-1.718 3.603.7-2.962 11.639-7.839 25.548-5.323 37.52.503 2.398-2.977 3.726-3.484 1.31M401.622 120.19c-19.434-11.572-41.362-16.295-63.81-13.807-23.044 2.554-44.517 14.366-64.916 25.362-2.098 1.13-4.15-2.034-2.026-3.178 20.506-11.054 41.221-21.899 64.114-25.673 23.539-3.881 47.963 1.709 68.306 13.823 2.033 1.21.383 4.693-1.668 3.472M420.86 135.891a3593.762 3593.762 0 0 0 10.287 26.057c.912 2.286-2.58 3.574-3.484 1.31-3.461-8.671-6.89-17.355-10.285-26.056-.896-2.294 2.595-3.584 3.483-1.31M322.58 206.15c-2.72 8.176-11.98 11.466-19.623 10.764-8.983-.821-15.269-5.81-17.354-15.094-4.543-20.218 16.6-34.302 33.212-28.48 2.228.782.537 4.247-1.67 3.473-13.143-4.608-25.837 4.044-28.164 18.255-1.314 8.028 3.294 15.143 10.438 17.436 6.87 2.206 17.29-.246 19.883-8.036.782-2.355 4.054-.649 3.277 1.682"/>
        <path fill="#FFF" d="M298.758 176.529c-4.116-7.175 1.692-16.097 7.453-20.426 6.85-5.148 16.058-1.777 20.071 5.09 1.227 2.099-1.838 4.294-3.07 2.188-2.856-4.89-7.633-6.862-12.953-5.14-5.067 1.64-11.488 10.774-8.431 16.1 1.208 2.108-1.855 4.304-3.07 2.188"/>
        <path fill="#FFF" d="M307.03 158.06c-6.258-1.364-21.623-10.355-10.097-16.69 13.845-7.608 28.748-2.96 43.168-.66 2.34.373 1.595 4.167-.738 3.794-6.779-1.081-13.557-2.175-20.343-3.21-4.883-.747-9.335-.652-14.102.812a54.747 54.747 0 0 0-4.276 1.717c.23 2.716.458 5.431.686 8.146a17.597 17.597 0 0 0 6.44 2.298c2.31.504 1.577 4.299-.737 3.794M295.613 168.034c-4.79 6.296-10.641 12.902-18.959 11.811-7.188-.944-1.398-10.694.759-13.436 2.637-3.353 6.117-6.039 9.437-8.58 2.707-2.069 5.355-4.464 8.833-3.549 6.973 1.837 2.532 11.118-.186 14.557-1.527 1.933-4.267-.586-2.737-2.52 1.43-1.812 2.937-3.57 3.02-6.087.164-4.896-6.19.245-6.903.778-3.154 2.36-6.111 4.908-8.726 7.921-1.141 1.315-2.096 2.796-2.887 4.362-2.289 4.535 5.375 1.968 5.894 1.75 4.097-1.706 7.06-6.034 9.717-9.527 1.493-1.963 4.23.56 2.738 2.52M360.569 238.21c-1.236 17.736-18.95 19.28-32.414 16.937-10.692-1.86-20.6-6.415-31.48-7.513-3.216-.325-15.824 1.262-16.127-4.889-.738-14.931 22.764-14.49 31.64-13.378 5.025.63 9.983 1.593 15.031 2.065 5.958.558 11.744-.879 17.643-1.564 6.128-.711 12.13 1.418 15.44 6.897 1.257 2.083-1.809 4.276-3.07 2.188-4.45-7.369-13.099-5.22-20.061-4.071-5.258.87-10.48.45-15.702-.205-6.16-.77-12.173-2.062-18.41-2.157-2.138-.032-4.254.246-6.37.553a25.33 25.33 0 0 0-5.577 1.667c-3.739.982-5.365 3.717-4.88 8.205 6.333 1.301 12.956.847 19.34 2.116 6.241 1.242 12.297 3.473 18.43 5.158 11.88 3.263 31.748 4.757 32.964-12.71.172-2.478 3.774-1.747 3.603.7M380.56 232.02c-4.828-3.062-8.957-7.633-10.573-13.439-1.323-4.756 3.246-9.013 7.653-8.293 5.776.944 8.868 5.955 10.327 11.495.537 2.034 1.963 6.32.535 8.175-1.746 2.267-4.635 2.695-7.26 2.815-2.367.106-2.617-3.738-.245-3.845a13.976 13.976 0 0 0 3.984-.738c.951-.323-.35-4.436-.496-5.096-.743-3.343-2.23-6.416-5.083-8.239-1.294-.828-2.747-.9-4.177-.451-3.211 1.007-1.175 4.81-.213 6.616 1.682 3.158 4.293 5.672 7.218 7.527 1.993 1.265.346 4.751-1.67 3.473M334.183 295.433c-21.24-1.702-40.676-11.258-55.356-27.195-1.133-1.231.573-3.29 1.719-2.047 14.405 15.641 33.316 24.918 54.153 26.587 1.651.132 1.119 2.786-.516 2.655"/>
        <path fill="#FFF" d="M312.366 284.21c-8.708-3.246-16.26-8.429-22.56-15.476-1.113-1.244.592-3.305 1.72-2.045 6.153 6.883 13.502 11.92 22.008 15.09 1.552.578.371 3.004-1.168 2.43M384.603 236.484c-10.924 24.953-38.62 35.135-61.518 22.728-1.46-.79-.3-3.225 1.168-2.431 21.7 11.758 47.713 2.15 58.055-21.475.698-1.594 2.993-.415 2.295 1.178M286.167 228.37c-7.527-8.918-12.191-21.172-5.483-32.379.882-1.471 3.187-.311 2.296 1.179-6.063 10.125-1.904 21.088 4.905 29.155 1.074 1.272-.629 3.336-1.718 2.046M388.573 207.924c4.746-6.813 1.964-14.782-1.806-21.07-.873-1.462 1.272-2.996 2.15-1.533 4.46 7.445 7.052 16.504 1.573 24.367-.987 1.417-2.9-.355-1.917-1.764M148.435 535.495c-14.936 24.55-42.982 29.49-67.517 37.131-2.28.71-3.467-2.918-1.181-3.63 23.313-7.259 51.163-11.753 65.42-35.184 1.272-2.09 4.566-.435 3.278 1.683M138.405 561.69c-10.334 7.489-21.766 12.31-34.08 14.462-2.352.411-2.574-3.439-.248-3.845 11.686-2.042 22.498-6.69 32.302-13.795 1.972-1.428 3.995 1.75 2.026 3.178M262.924 324.693c-10.05-6.974-19.597-14.589-28.643-22.928-1.763-1.626.688-4.553 2.456-2.923 8.803 8.116 18.073 15.59 27.857 22.379 1.93 1.34.29 4.831-1.67 3.472M262.77 314.849a35.321 35.321 0 0 1-9.38-7.12c-1.636-1.743.803-4.683 2.456-2.922 2.527 2.69 5.364 4.876 8.591 6.57 2.101 1.102.44 4.578-1.668 3.472M436.905 596.854c-1.257-5.48-5.024-9.78-10.268-11.223-2.268-.626-1.547-4.424.738-3.794 6.43 1.77 11.445 6.874 13.012 13.706.55 2.392-2.931 3.717-3.482 1.31M441.432 583.161c-2.02-2.778-4.838-4.483-8.13-5.06-2.332-.411-1.59-4.204.738-3.794 4.265.749 7.863 3.092 10.461 6.667 1.427 1.964-1.65 4.139-3.07 2.187M284.814 512.89c-9.578-4.024-19.064.721-27.697 5.36-2.1 1.127-4.15-2.037-2.027-3.178 9.997-5.37 20.43-10.26 31.393-5.654 2.185.919.507 4.387-1.67 3.472M277.188 502.573c-4.596-.01-8.956 1.636-12.373 4.975-1.734 1.694-4.494-.805-2.74-2.52 4.112-4.017 9.272-6.312 14.867-6.3 2.354.006 2.615 3.85.246 3.845M315.655 76.209c-21.061 5.813-39.579 18.063-53.703 35.603-1.545 1.919-4.285-.598-2.739-2.52 14.495-18 33.636-30.744 55.26-36.713 2.29-.632 3.484 2.994 1.182 3.63M294.1 70.948c-8.2 2.737-15.119 8.25-19.71 15.941-1.256 2.106-4.548.448-3.277-1.683 5.1-8.55 12.652-14.832 21.804-17.888 2.273-.758 3.455 2.87 1.182 3.63M99.327 67.393c-8.555-.195-16.37 3.697-21.669 10.872-1.465 1.984-4.2-.54-2.738-2.52 5.818-7.877 14.749-12.412 24.161-12.197 2.347.053 2.61 3.898.246 3.845M86.506 60.532A86.113 86.113 0 0 0 73.55 71.928c-1.665 1.79-4.417-.716-2.74-2.519a90.976 90.976 0 0 1 13.67-12.055c1.977-1.417 4.002 1.76 2.025 3.178M366.871 457.7c-9.91-8.25-14.465-21.363-12.139-34.56.434-2.458 4.037-1.753 3.603.7-2.101 11.926 2.064 23.506 10.992 30.937 1.84 1.533-.619 4.452-2.456 2.923M370.84 521.446c2.149-1.07 4.018-2.79 5.306-4.893 1.279-2.085 4.573-.43 3.278 1.685-1.857 3.028-4.304 5.294-7.401 6.837-2.163 1.079-3.317-2.565-1.182-3.629M73.682 228.338c-3.934-3.204-9.238-8.027-8.388-14.03 1.242-8.76 9.409-15.811 14.674-22.271 2.333-2.862 6.444.912 4.108 3.78l-9.32 11.433c-2.493 3.06-5.304 6.34-3.073 10.882 1.18 2.406 3.7 4.208 5.682 5.823 2.784 2.269-.906 6.646-3.683 4.383"/>
        <path fill="#FFF" d="M66.646 213.309c-10.41-8.233-21.786-13.301-33.284-19.513-10.012-5.407-17.71-15.387-25.624-23.515-2.505-2.572 1.157-6.977 3.683-4.383 9.102 9.347 17.416 19.282 29.1 25.109 10.52 5.246 20.486 10.546 29.808 17.919 2.813 2.225-.88 6.6-3.683 4.383"/>
    </g>
</svg>
