<svg xmlns="http://www.w3.org/2000/svg" width="163" height="27" viewBox="0 0 163 27">
    <defs>
        <radialGradient id="a" cy="26.838%" r="144.969%" fx="50%" fy="26.838%">
            <stop offset="0%" stop-color="#FFF"/>
            <stop offset="100%" stop-color="#F8F8F8"/>
        </radialGradient>
        <linearGradient id="b" x1="50%" x2="50%" y1="100%" y2="12.513%">
            <stop offset="0%" stop-color="#FFF"/>
            <stop offset="100%" stop-color="#FBFBFB"/>
        </linearGradient>
    </defs>
    <g fill="none" fill-rule="evenodd">
        <text fill="#FF9400" font-family="Avenir-Black, Avenir" font-size="24" font-weight="700">
            <tspan x="43" y="24">Cook</tspan>
        </text>
        <text fill="#4A4A4A" font-family="Avenir-Black, Avenir" font-size="24" font-weight="700">
            <tspan x="105" y="24">Book</tspan>
        </text>
        <path fill="#CCC" d="M28 10.27a6.54 6.54 0 0 0-7.005-6.517A8.414 8.414 0 0 0 14 0a8.414 8.414 0 0 0-6.995 3.753A6.54 6.54 0 0 0 0 10.27c0 3.287 2.44 6.014 5.602 6.467v7.834c0 1.334 1.106 2.168 2.44 2.168h11.946c1.333 0 2.41-.834 2.41-2.168v-7.834c3.163-.453 5.602-3.18 5.602-6.467z"/>
        <path fill="url(#a)" d="M21.468 14.943a4.634 4.634 0 0 1-1.793-.357c.13-.12.257-.244.38-.372.617-.81-.007-1.368-.124-1.434-.116-.066-.713-.38-1.275.21A6.546 6.546 0 0 1 14 14.942a6.547 6.547 0 0 1-4.697-1.997c-.203-.209-.387-.386-.978-.3-.591.087-.955.96-.436 1.51.14.148.286.292.436.43A4.678 4.678 0 0 1 1.86 10.27a4.678 4.678 0 0 1 5.468-4.605.93.93 0 0 0 .968-.461A6.552 6.552 0 0 1 14 1.86a6.552 6.552 0 0 1 5.704 3.344.93.93 0 0 0 .968.46 4.678 4.678 0 0 1 5.468 4.605 4.678 4.678 0 0 1-4.672 4.674z"/>
        <path fill="url(#b)" d="M19.988 24.57H8.031c-.302 0-.554-.42-.554-.722l-.015-7.111a6.427 6.427 0 0 0 2.556-.945A8.36 8.36 0 0 0 14 16.803a8.361 8.361 0 0 0 3.982-1.01 6.43 6.43 0 0 0 2.556.944l.007 7.11c0 .303-.255.723-.557.723z"/>
    </g>
</svg>
