<svg xmlns="http://www.w3.org/2000/svg" xmlns:xlink="http://www.w3.org/1999/xlink" width="200" height="389" viewBox="0 0 200 389">
    <defs>
        <path id="a" d="M.264 133.796h152.588V.076H.264v133.72z"/>
        <path id="c" d="M.641 42.044h93.311V.674H.641v41.37z"/>
        <path id="e" d="M.455 32.868H62.27V.113H.455v32.755z"/>
        <path id="g" d="M.325 143.806h90.92V.226H.325v143.58z"/>
        <path id="i" d="M.869.607V232.23h98.76V.607H.87z"/>
        <path id="k" d="M.853 24.527h11.394V.355H.853v24.172z"/>
        <path id="m" d="M292.293 138.801H.87V.061h291.424z"/>
    </defs>
    <g fill="none" fill-rule="evenodd" opacity=".15">
        <path fill="#FFF" d="M13.778 369.058c.345-2.812 4.485-2.303 4.14.508-.346 2.81-4.485 2.302-4.14-.508M12.108 355.284c.345-2.81 4.484-2.303 4.14.508-.346 2.811-4.485 2.303-4.14-.508M23.698 356.707c.345-2.81 4.485-2.302 4.14.508-.345 2.811-4.485 2.303-4.14-.508M159.994 209.442l.071-.581c.146-1.189 1.21-2.064 2.338-1.926 1.127.139 1.948 1.246 1.802 2.434l-.072.581c-.145 1.189-1.21 2.064-2.337 1.926-1.128-.139-1.948-1.246-1.802-2.434M149.188 201.626c.345-2.811 4.485-2.303 4.14.509-.345 2.81-4.485 2.302-4.14-.509M162.882 195.048c.345-2.81 4.484-2.302 4.14.508-.346 2.812-4.486 2.304-4.14-.508M83.985 23.131l-.071.581c-.146 1.188-1.21 2.064-2.338 1.926-1.128-.139-1.948-1.247-1.802-2.434l.072-.581c.145-1.188 1.208-2.064 2.337-1.926 1.128.139 1.948 1.246 1.802 2.434M85.308 3.236l-.072.581c-.146 1.188-1.209 2.064-2.337 1.925-1.128-.138-1.948-1.245-1.802-2.433l.071-.582c.146-1.187 1.21-2.064 2.338-1.925 1.128.139 1.947 1.246 1.802 2.434M67.26 11.049c.345-2.811 4.485-2.303 4.14.508-.346 2.81-4.485 2.302-4.14-.508M79.895 113.478c.345-2.811 4.484-2.303 4.14.508-.346 2.81-4.485 2.302-4.14-.508M63.051 113.769c.345-2.81 4.485-2.302 4.14.508-.345 2.812-4.485 2.303-4.14-.508M67.453 100.741c.345-2.81 4.484-2.302 4.14.509-.346 2.81-4.485 2.302-4.14-.509M190.474 27.357l-.071.582c-.146 1.187-1.209 2.064-2.337 1.925-1.128-.138-1.948-1.246-1.803-2.434l.072-.581c.146-1.188 1.21-2.064 2.337-1.925 1.129.138 1.948 1.245 1.802 2.433M104.2 145.958l-.072.582c-.145 1.187-1.209 2.064-2.337 1.925-1.128-.139-1.948-1.246-1.802-2.433l.071-.582c.146-1.188 1.21-2.064 2.338-1.925 1.128.138 1.948 1.245 1.802 2.433M10.267 160.381c.345-2.81 4.484-2.302 4.14.509-.346 2.811-4.485 2.303-4.14-.509M117.492 290.943l.071-.582c.146-1.187 1.21-2.063 2.338-1.925 1.128.139 1.948 1.246 1.802 2.434l-.072.581c-.145 1.188-1.208 2.064-2.337 1.925-1.128-.138-1.948-1.245-1.802-2.433M100.42 279.408c.345-2.81 4.485-2.303 4.14.508-.346 2.811-4.485 2.303-4.14-.508M98.184 320.428c.345-2.81 4.485-2.302 4.14.509-.345 2.81-4.485 2.302-4.14-.509M192.656 326.719c.345-2.81 4.484-2.303 4.14.508-.346 2.81-4.486 2.302-4.14-.508M189.963 344.086c.345-2.81 4.484-2.302 4.14.508-.346 2.81-4.485 2.302-4.14-.508"/>
        <g transform="scale(1 -1) rotate(83 246.967 -118.791)">
            <mask id="b" fill="#fff">
                <use xlink:href="#a"/>
            </mask>
            <path fill="#FFF" d="M3.51 134.74a416.217 416.217 0 0 1 27.792-69.912 390.44 390.44 0 0 1 8.664-16.131c2.892-5.103 6.332-9.95 12.331-11.935 5.898-1.952 13.37-1.215 19.39-.273 6.33.99 12.384 3.188 18.01 6.067 1.87.956 3.534-1.745 1.663-2.701-10.758-5.503-23.681-8.658-35.933-6.9-13.1 1.88-17.99 13.327-23.387 23.414C18.796 81.129 8.246 107.18.334 133.909c-.576 1.945 2.602 2.77 3.176.83" mask="url(#b)"/>
            <path fill="#FFF" d="M90.091 42.713c6.506.973 9.892-4.709 12.317-9.555 4.37-8.735 8.13-18.231 13.51-26.448 1.737-2.652 6.415-5.564 9.111-1.805 1.92 2.679-.466 6.376-1.885 8.675-2.581 4.182-4.995 8.359-7.026 12.813-1.672 3.667-3.024 7.449-4.19 11.285-.989 3.258-2.563 7.816-.464 11.023 8.91 13.614 38.423 11.946 38.014 32.056-.095 4.643-2.715 9.63-4.268 13.957a5433.15 5433.15 0 0 1-16.305 44.789c-.704 1.908 2.478 2.721 3.176.831a5823.706 5823.706 0 0 0 11.286-30.875 5433.77 5433.77 0 0 0 5.574-15.46c1.565-4.36 3.312-8.637 3.83-13.242.847-7.517-5.163-13.827-11.05-17.915-3.868-2.686-8.44-4.436-12.776-6.306-5.056-2.178-12.765-4.948-14.967-10.228-1.038-2.49.799-6.72 1.549-9.187.702-2.317 1.562-4.588 2.457-6.842 1.923-4.837 4.431-9.449 7.212-13.884 2.507-4 7.122-13.722-.734-15.908-8.478-2.36-12.32 5.953-15.26 11.83l-7.414 14.817c-1.846 3.69-4.965 13.438-10.821 12.563-2.077-.31-2.969 2.703-.876 3.016" mask="url(#b)"/>
        </g>
        <path fill="#FFF" d="M31.52 293.089c-3.019-.719-5.844-1.982-7.553-4.804-1.281-2.116 2.48-6.816 3.365-8.518 4.787-9.201 9.32-18.62 14.415-27.64 2.083-3.689 9.742.933 8.174 4.311-2.244 4.833-5.49 9.26-8.002 13.97-2.558 4.796-4.818 9.76-6.908 14.795-.54 1.299-2.467.48-1.925-.825a186.287 186.287 0 0 1 7.677-16.234c1.323-2.482 2.735-4.91 4.174-7.319.915-1.53 3.77-4.94 1.587-6.84-3.175-2.767-3.898.905-4.909 2.849l-8.496 16.333-4.635 8.91-2.317 4.454c-1.263 2.429 4.642 4.146 5.621 4.378 1.295.309 1.04 2.492-.267 2.18M18.872 285.33l-4.341-2.64c-1.156-.702.13-2.45 1.276-1.753l4.34 2.64c1.156.703-.13 2.45-1.275 1.754"/>
        <path fill="#FFF" d="M19.026 283.56a162.706 162.706 0 0 0 5.221-16.705c.663-2.618 1.215-5.264 1.738-7.914.204-1.062.396-2.125.576-3.191.304-1.733 1.398-3.344-.873-3.595l-2.622-.29c-.83-.092-1.401 3.693-1.526 4.166l-2.182 8.318-2.184 8.316c-.728 2.776-2.336 6.321-1.853 9.185.234 1.394-1.834 1.72-2.068.334-.717-4.259 1.802-9.603 2.87-13.67 1.6-6.1 3.202-12.198 4.803-18.297.123-.467.68-.723 1.096-.677 1.583.175 5.613-.234 6.732 1.277 1.435 1.937-.314 6.307-.7 8.378-1.6 8.598-4.067 17.02-7.103 25.188-.492 1.324-2.417.5-1.925-.823M9.353 278.477l-5.09-.647c-.731-.093-1.012-.824-.828-1.501a154.595 154.595 0 0 0 4.45-23.481c.06-.551.617-1.09 1.168-.963l5.014 1.152c.509.117 1.04.592.9 1.217l-5.123 23.148c-.303 1.367-2.376 1.127-2.07-.255L12.898 254l.9 1.217-5.013-1.152 1.17-.962a158.379 158.379 0 0 1-4.595 24.05l-.828-1.5 5.089.645c1.333.17 1.066 2.349-.268 2.18M11.957 239.631c5.189-2.68 9.054-7.715 12.947-12.078 3.892-4.364 7.626-8.881 11.262-13.48l.188 1.536c-6.102-3.868-13.595-2.501-18.961 2.263-5.995 5.32-6.84 14.945-4.528 22.212.424 1.33-1.496 2.217-1.921.88-2.773-8.706-1.262-18.226 5.174-24.813 5.7-5.834 14.983-6.434 21.512-2.296.471.3.526 1.11.188 1.537a320.952 320.952 0 0 1-13.391 15.854c-3.521 3.904-7.007 7.994-11.656 10.395-1.218.629-2.023-1.386-.814-2.01"/>
        <path fill="#FFF" d="M14.208 238.12c-.866-5.772-.071-13.451 4.553-17.522 4.214-3.71 9.785-4.643 14.73-2.184 1.205.598.406 2.637-.808 2.034-4.502-2.238-9.629-1.338-13.198 2.456-3.51 3.732-3.931 10.075-3.21 14.882.21 1.398-1.858 1.726-2.067.334"/>
        <path fill="#FFF" d="M18.078 234.863c-1.197-6.888 3.766-12.783 10.359-12.67 1.345.023 1.065 2.202-.268 2.18-5.29-.09-8.959 4.778-8.024 10.156.242 1.392-1.827 1.717-2.067.334M18.269 306.776c-10.154-5.314-20.308-10.628-30.462-15.94-1.19-.624-.394-2.664.808-2.035l30.462 15.94c1.19.623.394 2.663-.808 2.035"/>
        <path fill="#FFF" d="M19.601 306.364c-1.578 3.966-5.433 5.3-9 6.731-4.53 1.82-10.032 3.12-14.756 1.488-10.24-3.54-11.827-15.042-8.924-24.771.404-1.353 2.327-.521 1.925.824-2.412 8.085-1.593 17.693 6.558 21.482 4.032 1.874 8.906.813 12.943-.503 3.224-1.05 7.904-2.492 9.33-6.076.52-1.31 2.446-.489 1.924.825"/>
        <path fill="#FFF" d="M15.087 306.322c-5.146 2.717-11.978 5.69-17.483 2.345-5.598-3.402-6.223-9.974-6.125-16.243.022-1.414 2.092-1.144 2.07.254-.08 5.03.232 10.293 4.285 13.6 4.766 3.888 11.817.474 16.439-1.966 1.212-.64 2.016 1.374.814 2.01"/>
        <g transform="scale(1 -1) rotate(83 179.304 -146.798)">
            <mask id="d" fill="#fff">
                <use xlink:href="#c"/>
            </mask>
            <path fill="#FFF" d="M3.674.973C-2.718 6.87 1.598 18.15 10.982 17.275c1.397-.129 1.41-2.216 0-2.085-7.46.694-10.85-8.043-5.755-12.742C6.244 1.51 4.69.037 3.674.973M92.543 22.197a530.875 530.875 0 0 0-14.67 31.825c-.37.875 1.117 1.25 1.481.388A525.317 525.317 0 0 1 93.87 22.933c.424-.845-.901-1.585-1.327-.736" mask="url(#d)"/>
        </g>
        <path fill="#FFF" d="M41.575 201.758l-25.943 6.854c-.918.243-1.111-1.279-.204-1.518l25.943-6.855c.917-.242 1.11 1.28.204 1.52"/>
        <g transform="scale(1 -1) rotate(83 153.04 -127.56)">
            <mask id="f" fill="#fff">
                <use xlink:href="#e"/>
            </mask>
            <path fill="#FFF" d="M60.838.471a96.628 96.628 0 0 0-5.782 11.435c-.372.874 1.115 1.25 1.482.389a93.753 93.753 0 0 1 5.627-11.087C62.65.387 61.324-.35 60.838.47M18.795 8.868C12.318 5.635 8.27 12.132 6.547 17.131c-3.343 9.695-5.215 19.849-6.089 30-.08.938 1.458.93 1.537 0 .507-5.889 4.256-42.878 16.023-37.002.877.438 1.654-.822.777-1.26" mask="url(#f)"/>
        </g>
        <path fill="#FFF" d="M63.321 285.731a209.976 209.976 0 0 1-16.93 3.95c-.93.176-1.13-1.343-.203-1.52a209.741 209.741 0 0 0 16.93-3.948c.913-.254 1.106 1.268.203 1.518M58.813 239.908l-10.782 2.186c-.93.189-1.128-1.33-.205-1.518l10.783-2.187c.93-.189 1.128 1.331.204 1.519M35.945 242.78l-6.111 1.926c-.895.282-1.472-1.122-.57-1.407l6.111-1.925c.895-.282 1.473 1.122.57 1.407M43.48 241.562l-1.28.353c-.386.107-.774-.261-.825-.643-.06-.446.235-.769.621-.875l1.28-.353c.385-.108.773.26.825.642.06.446-.236.77-.621.876M128.871 186.077c-1.2 3.738-5.798 4.71-8.965 5.798-4.484 1.54-9.262 2.28-13.955 2.34-10.688.131-20.974-2.75-30.622-7.326-21.618-10.255-37.85-29.538-56.39-44.463-1.59-1.28.318-3.915 1.915-2.63 16.064 12.932 30.193 28.491 47.588 39.57 8.693 5.535 18.457 9.39 28.543 10.99 4.72.75 9.512.751 14.261.171 2.517-.306 5.008-.916 7.44-1.667 1.907-.59 6.552-1.697 7.297-4.02.649-2.017 3.533-.773 2.888 1.237"/>
        <g transform="scale(1 -1) rotate(83 170.504 -20.966)">
            <mask id="h" fill="#fff">
                <use xlink:href="#g"/>
            </mask>
            <path fill="#FFF" d="M34.56 115.448c6.601-5.863 15.933-7.761 23.224-12.676 1.717-1.157.075-3.87-1.662-2.7-7.543 5.083-17.046 7.084-23.892 13.164-1.554 1.38.78 3.588 2.33 2.212" mask="url(#h)"/>
            <path fill="#FFF" d="M.4 2.159c4.005 13.013 12.35 24.957 19.08 36.814A20381.254 20381.254 0 0 0 88.184 159.04c1.021 1.77 3.865.191 2.844-1.579A20634.566 20634.566 0 0 1 23.97 40.293c-3.566-6.279-7.128-12.56-10.688-18.843C9.587 14.93 5.775 8.473 3.576 1.327 2.98-.605-.198.217.4 2.16" mask="url(#h)"/>
        </g>
        <path fill="#FFF" d="M113.27 185.165c-20.559 5.17-38.786-7.453-54.573-19.388-.76-.575.132-1.803.893-1.228 15.488 11.71 33.282 24.176 53.476 19.098.921-.232 1.116 1.29.205 1.518M54.437 163.043l-5.744-4.303c-.763-.572.13-1.8.893-1.228l5.744 4.304c.763.571-.13 1.799-.893 1.227M45.199 156.182c-1.647-.429-3.045-1.417-3.925-2.956-.477-.834.674-1.796 1.157-.953.668 1.169 1.677 2.05 2.955 2.383.899.233.722 1.762-.187 1.526M204.602 290.741a1218.307 1218.307 0 0 1-62.082-51.811c-1.015-.905.252-2.667 1.275-1.753a1217.985 1217.985 0 0 0 62.083 51.81c1.074.838-.2 2.593-1.276 1.754M208.096 287.021a1218.36 1218.36 0 0 1-62.002-51.749c-1.014-.905.253-2.666 1.276-1.753a1217.856 1217.856 0 0 0 62.002 51.748c1.074.838-.2 2.593-1.276 1.754"/>
        <path fill="#FFF" d="M143.864 238.86c-4.357 5.259-9.181-.01-12.7-3.33-6.087-5.744-11.92-11.782-17.564-18.004-.924-1.018.738-2.37 1.653-1.36a347.49 347.49 0 0 0 11.616 12.198c2.297 2.297 11.548 13.756 15.342 9.177.884-1.067 2.545.242 1.653 1.32M145.845 233.548c4.77-3.31-7.114-12.081-9.34-14.172l-12.246-11.51c-.99-.93.276-2.693 1.276-1.753l20.82 19.565c2.639 2.482 4.617 6.918.765 9.59-1.123.78-2.406-.935-1.275-1.72"/>
        <path fill="#FFF" d="M130.625 230.657l-15.035-15.503 1.463-.218c-.66.818-1.14 1.751-1.8 2.569-.873 1.08-2.532-.23-1.652-1.32.66-.817 1.14-1.75 1.8-2.568.335-.414 1.045-.65 1.464-.217l15.036 15.503c.94.97-.32 2.739-1.276 1.754M136.492 224.437l-8.4-7.832c-2.115-1.973-5.086-3.882-6.16-6.734-.13-.35-.11-.801.136-1.1l2.003-2.442c.88-1.071 2.539.239 1.651 1.32l-1.368 1.669c-.896 1.092-.548.27.8 1.603.818.81 1.687 1.574 2.528 2.358l10.086 9.405c.993.927-.272 2.69-1.276 1.753"/>
        <path fill="#FFF" d="M132.252 227.766l-14.134-13.39c-.423-.4-.552-1.025-.189-1.537 1.719-2.415 3.108-2.434 5.264-.89 1.738 1.246 3.063 3.2 4.509 4.781 2.524 2.761 5.166 5.4 7.861 7.977.98.937-.284 2.702-1.276 1.752a201.28 201.28 0 0 1-7.37-7.431c-1.501-1.594-2.868-3.404-4.456-4.898-1.236-1.163-1.545-1.847-2.88.028l-.187-1.536 14.134 13.39c.985.934-.28 2.698-1.276 1.754"/>
        <path fill="#FFF" d="M134.099 224.923c.322-.491.797-.9 1.223-1.288.442-.4.898-.769 1.401-1.079.495-.305 1.166.066 1.369.565.241.597-.062 1.142-.555 1.445.285-.176.065-.036.01.004a14.554 14.554 0 0 0-1.51 1.32c-.091.093-.095.097-.012.01l-.113.128c-.058.067-.111.14-.161.215-.325.494-1.031.563-1.464.216-.466-.372-.513-1.04-.188-1.536M133.716 227.549c-.741.84-1 2.027-1.743 2.87-.388.44-.981.603-1.463.217-.418-.334-.579-1.094-.19-1.536.742-.841 1-2.028 1.743-2.87.389-.441.982-.604 1.465-.218.417.335.577 1.094.188 1.537M174.488 302.105c5.964 12.9 3.164 28.582-5.98 39.233-9.131 10.636-23.968 14.357-36.892 11.633-1.96-.413-1.575-3.685.401-3.27 12.153 2.562 25.146-.8 34.012-10.342 8.736-9.4 10.93-24.35 5.576-35.933-.881-1.907 2.01-3.213 2.883-1.321"/>
        <path fill="#FFF" d="M131.514 353.307c-2.595 2.325-6.488 4.97-9.796 2.486-3.416-2.564-1.703-7.986-1.287-11.674.238-2.11 3.343-1.727 3.105.382l-.489 4.335c-.13 1.152-.704 3.119.201 4.04 1.93 1.963 4.91-.855 6.355-2.15 1.549-1.388 3.454 1.199 1.91 2.581"/>
        <path fill="#FFF" d="M120.305 345.063c-6.348-12.775.47-26.254 7.63-36.972 3.831-5.735 7.423-10.782 13.943-13.065 6.718-2.353 14.03-.73 20.69.745 1.954.431 1.57 3.704-.401 3.269-5.576-1.235-11.1-2.368-16.834-1.517-6.642.986-10.367 5.87-14.033 11.24-6.859 10.043-14.19 22.746-8.111 34.98.932 1.876-1.961 3.177-2.884 1.32"/>
        <path fill="#FFF" d="M171.868 303.347c-.375-.874-.568-1.732-.545-2.704.032-1.357.65-3.447-.397-4.518-2.308-2.364-5.762 1.132-7.4 2.738-1.489 1.458-3.387-1.136-1.912-2.581 2.49-2.44 5.83-5.174 9.43-3.79 1.492.574 2.524 1.518 3.215 3.018.953 2.066-.38 4.48.493 6.516.827 1.932-2.06 3.244-2.884 1.321M158.425 303.214c-9.358-.805-21.004 5.033-26.394 13.1-.545.815-1.7-.109-1.156-.923 5.722-8.564 17.84-14.554 27.738-13.703.939.08.749 1.607-.188 1.526M129.199 320.811a30.64 30.64 0 0 0-3.295 6.466c-.344.927-1.69.35-1.347-.577a32.356 32.356 0 0 1 3.485-6.812c.545-.815 1.702.11 1.157.923M143.853 335.77c.172-1.406 2.242-1.152 2.07.254-.173 1.405-2.243 1.15-2.07-.254M134.505 334.327c.173-1.406 2.242-1.152 2.07.254-.173 1.405-2.243 1.151-2.07-.254M139.337 342.884c.172-1.406 2.242-1.152 2.07.255-.173 1.405-2.243 1.15-2.07-.255M142.68 327.071c.172-1.405 2.242-1.15 2.07.254-.173 1.406-2.243 1.151-2.07-.254"/>
        <g transform="scale(1 -1) rotate(83 355.115 -76.21)">
            <mask id="j" fill="#fff">
                <use xlink:href="#i"/>
            </mask>
            <path fill="#FFF" d="M80.228 88.625c1.416 0 1.416-2.085 0-2.085s-1.416 2.085 0 2.085M-14.22 96.74c17.056-7.436 34.768 7.223 43.634 19.831 8.9 12.657 12.495 28.228 11.56 43.296-1.966 31.643-27.622 58.01-57.67 69.231-1.952.73-1.103 3.756.876 3.017 33.151-12.38 59.309-41.18 60.25-75.913.435-16.052-4.901-32.787-15.374-45.466-10.238-12.394-27.959-24.1-44.937-16.698-1.93.84-.254 3.536 1.661 2.701" mask="url(#j)"/>
            <path fill="#FFF" d="M-14.637 104.059c15.193-6.558 30.81 6.129 38.83 17.356 8.148 11.404 11.356 25.56 10.417 39.184-1.923 27.919-24.663 51.064-51.159 60.982-1.301.488-.736 2.505.583 2.011 29.138-10.907 52.068-36.158 52.952-66.684.422-14.604-4.652-29.189-14.082-40.693-8.727-10.646-24.311-20.146-38.65-13.957-1.287.556-.17 2.353 1.11 1.8M-7.64 62.636A1604.826 1604.826 0 0 1 67.288 13.46l-2.253-.56 13.488 17.277c1.25 1.601 4.11.044 2.844-1.578L67.88 11.32c-.514-.658-1.44-1.063-2.254-.562A1605.082 1605.082 0 0 0-9.303 59.935c-1.693 1.18-.053 3.897 1.663 2.701" mask="url(#j)"/>
            <path fill="#FFF" d="M1.7 85.154c26.137-18.429 52.939-35.987 79.076-54.416 1.685-1.188.046-3.904-1.663-2.7C52.976 46.465 26.174 64.023.037 82.451c-1.685 1.189-.045 3.906 1.663 2.702M-7.661 71.312l55.317-35.267c.819-.522.05-1.787-.775-1.26C28.44 46.54 10.002 58.294-8.437 70.051c-.818.52-.05 1.786.776 1.26" mask="url(#j)"/>
        </g>
        <path fill="#FFF" d="M176.046 395.983c5.781-7.103 11.64-14.134 17.576-21.094.628-.736 1.79.179 1.156.923a1190.756 1190.756 0 0 0-17.575 21.094c-.613.754-1.774-.164-1.157-.923M229.37 257.82c-6.35 1.94-12.71.142-18.156-3.398-5.626-3.658-11.883-10.295-13.489-17.264-3.208-13.915 4.885-31.998 17.994-36.958 5.977-2.262 12.986-1.926 18.976-.133 7.352 2.2 12.426 6.068 15.706 13.388 6.3 14.06 3.801 31.942-10.259 39.708-1.802.995-3.004-2.03-1.22-3.015 12.412-6.856 13.565-21.758 9.105-34.102-4.377-12.114-17.907-15.816-29.207-13.378-12.082 2.606-18.966 17.79-18.666 29.728.315 12.549 16.187 26.016 27.995 22.408 1.921-.587 3.16 2.423 1.22 3.015M98.12 73.654c1.807 6.743-8.998 4.16-12.189 3.978l-29.622-1.68c-11.755-.666-34.489.333-34.838-17.542-.04-2.098 3.06-2.617 3.1-.502.3 15.335 20.36 14.108 30.495 14.682l19.747 1.12 9.875.56c1.066.06 10.351-.036 10.55.705-.54-2.012 2.34-3.351 2.882-1.32"/>
        <path fill="#FFF" d="M94.497 73.277c-13.748-3.338-27.915-.707-41.86-1.968-6.452-.583-13.413-2.03-19.435-4.526-3.998-1.655-6.2-5.802-4.9-10.139.609-2.03 3.493-.78 2.888 1.237-2.86 9.528 25.982 10.543 31.184 10.572 10.917.06 21.8-1.049 32.524 1.554 1.94.471 1.559 3.746-.401 3.27"/>
        <path fill="#FFF" d="M28.195 57.513c-.866-4.273 5.706-4.24 8.3-4.737 6.131-1.175 12.37-1.533 18.578-1.434 6.958.111 13.859 1.284 20.744 2.17 5.822.748 16.173 3.274 20.995-1.304l-.284 2.312c-2.132-2.282-7.41-1.92-10.211-2.21a348.194 348.194 0 0 0-9.64-.835c-6.433-.485-12.883-.772-19.333-.99-6.454-.22-12.911-.32-19.369-.397-3.162-.038-6.277-.142-9.318.97-3.202 1.17-3.676 4.216-4.083 7.291-.278 2.105-3.383 1.725-3.105-.381.67-5.052 2.333-9.15 7.51-10.466 7.56-1.922 16.247-.615 23.925-.427 8.605.21 17.203.606 25.784 1.252 4.288.323 8.568.75 12.84 1.238 2.936.335 5.369.655 7.48 2.913.624.668.295 1.762-.284 2.312-2.96 2.808-6.628 2.93-10.414 2.97-6.473.066-12.932-.973-19.326-1.833-6.64-.891-13.253-1.503-19.966-1.264-1.516.055-17.775 2.087-17.722 2.349.421 2.075-2.683 2.557-3.1.501"/>
        <g transform="scale(1 -1) rotate(83 49.078 -19.552)">
            <mask id="l" fill="#fff">
                <use xlink:href="#k"/>
            </mask>
            <path fill="#FFF" d="M1.84.68C.287 2.262.611 4.898 2.493 6.16c2.475 1.662 5.81 1.212 8.61.701.345-.062.703-.4.767-.728.31-1.576.438-3.139.347-4.742-.076-1.337-2.272-1.344-2.196 0 .081 1.417.006 2.791-.268 4.188l.767-.728c-1.53.279-3.065.427-4.623.336C4.54 5.11 1.876 3.7 3.392 2.155 4.355 1.172 2.806-.306 1.839.68" mask="url(#l)"/>
            <path fill="#FFF" d="M3.276 6.952c.476 11.117.56 22.239.251 33.362-.037 1.345 2.16 1.342 2.196 0a473.174 473.174 0 0 0-.251-33.362c-.057-1.34-2.254-1.345-2.196 0M7.292 6.952l.158 37.534c.005 1.345 2.2 1.345 2.195 0L9.488 6.952c-.005-1.345-2.2-1.346-2.196 0" mask="url(#l)"/>
        </g>
        <path fill="#FFF" d="M210.14 75.684c-.78 13.749-7.372 26.165-18.182 34.07-7.276 5.32-23.13 12.299-29.523 2.51-2.87-4.391-2.61-12.55-2.342-17.645.312-5.98 3.686-11.45 7.455-15.728 7.732-8.78 21.246-17.315 32.75-13.325 1.908.662.689 3.711-1.213 3.05-9.747-3.38-20.417 4.072-27.499 10.666-8.29 7.72-10.395 19.345-6.986 30.168 2.02 6.413 10.9 4.18 15.397 2.774 4.817-1.505 9.224-4.195 13.148-7.474 8.542-7.135 13.253-18.227 13.89-29.448.12-2.121 3.224-1.726 3.104.382"/>
        <path fill="#FFF" d="M199.34 66.625l63.595-72.31c1.366-1.553 3.86.407 2.478 1.98l-63.595 72.309c-1.365 1.552-3.86-.408-2.478-1.98M201.16 78.561c-2.17 7.029-4.702 15.315-10.049 20.506-5.115 4.966-11.504 7.468-18.211 8.898-.928.199-1.125-1.322-.204-1.518 6.072-1.295 11.784-3.478 16.614-7.702 5.717-5 8.294-13.604 10.503-20.76.291-.945 1.638-.364 1.347.576M167.491 103.741a17.913 17.913 0 0 1 .174-6.955c.213-.957 1.664-.789 1.449.178a16.76 16.76 0 0 0-.176 6.543c.166.975-1.282 1.204-1.447.234M170.072 90.304c3.077-7.19 10.354-15.637 17.992-17.118.932-.18 1.13 1.34.204 1.52-7.035 1.363-13.997 9.512-16.848 16.175-.387.905-1.737.333-1.348-.577"/>
        <path fill="#FFF" d="M220.482 63.805c12.343 19.542 17.24 44.246 12.03 67.418-5.078 22.578-26.044 38.004-46.278 43.872-11.33 3.286-23.462 3.252-34.564-.574-10.137-3.493-18.85-10.7-25.958-18.851-13.884-15.92-20.994-38.832-15.412-60.177 5.584-21.346 25.018-40.122 44.259-47.862 10.038-4.04 21.122-4.95 31.72-4.29 9.665.6 19.29 3.837 25.572 11.845 1.28 1.63-1.203 3.667-2.48 2.042-7.894-10.064-21.179-11.174-32.84-10.715-13.043.513-25.089 4.77-35.788 12.734-9.865 7.344-18.543 16.894-24.092 28.23-5.43 11.092-6.329 23.51-3.891 35.492 4.934 24.247 24.754 46.451 48.291 50.595 24.058 4.236 52.801-10.038 64.734-32.714 6.104-11.6 6.46-26.569 4.968-39.319-1.494-12.77-6.025-25.036-12.75-35.684-1.105-1.748 1.366-3.803 2.479-2.042"/>
        <path fill="#FFF" d="M206.31 159.549c-16.9 7.977-35.04 15.503-53.065 7.464-15.62-6.966-27.835-22.739-35.33-38.268-.608-1.258 1.32-2.128 1.922-.88 7.236 14.992 18.484 28.92 32.969 36.51 17.406 9.117 36.216.94 52.69-6.836 1.237-.584 2.046 1.428.814 2.01M116.871 116.984c-2.057-7.237.068-15.353 1.383-22.611.251-1.387 2.323-1.14 2.07.254-1.218 6.714-3.43 14.79-1.53 21.476.38 1.339-1.54 2.23-1.923.88M206.158 60.265c-11.474-5.788-24.089-7.596-36.713-5.296-12.958 2.36-24.66 9.906-35.786 16.947-1.144.724-2.432-.988-1.274-1.721 11.184-7.078 22.494-14.045 35.32-17.091 13.186-3.133 27.25-.933 39.26 5.126 1.2.606.403 2.645-.807 2.035M164.766 112.117c-1.217 4.74-6.335 6.972-10.694 6.878-5.124-.11-8.884-2.688-10.434-7.868-3.376-11.278 8.049-20.098 17.695-17.456 1.293.354.472 2.385-.809 2.034-7.632-2.091-14.484 3.316-15.24 11.462-.426 4.602 2.468 8.452 6.608 9.468 3.981.979 9.79-.824 10.95-5.342.35-1.366 2.272-.528 1.924.824"/>
        <path fill="#FFF" d="M150.092 96.272c-2.618-3.903.32-9.19 3.414-11.872 3.678-3.188 9.03-1.643 11.577 2.09.779 1.14-.871 2.506-1.653 1.362-1.813-2.66-4.598-3.587-7.545-2.4-2.807 1.13-6.084 6.561-4.14 9.459.768 1.146-.881 2.513-1.653 1.361"/>
        <path fill="#FFF" d="M154.048 85.478c-3.601-.526-12.666-5.013-6.384-9.06 7.545-4.86 16.176-2.817 24.44-2.085 1.34.12 1.068 2.299-.268 2.18-3.885-.344-7.77-.696-11.657-1.014-2.797-.23-5.317.001-7.96 1.02-.8.347-1.586.728-2.356 1.143l.711 4.59a9.998 9.998 0 0 0 3.742 1.046c1.329.194 1.064 2.374-.268 2.18M147.972 91.582c-2.465 3.758-5.52 7.734-10.277 7.446-4.111-.25-1.216-6.006-.102-7.645 1.361-2.005 3.227-3.665 5.009-5.237 1.452-1.28 2.858-2.742 4.865-2.361 4.024.765 1.875 6.2.472 8.257-.79 1.156-2.442-.163-1.652-1.32.739-1.083 1.523-2.139 1.471-3.57-.101-2.78-3.5.385-3.882.715-1.694 1.463-3.269 3.024-4.632 4.836a12.073 12.073 0 0 0-1.463 2.586c-1.117 2.66 3.124.902 3.41.759 2.255-1.13 3.762-3.7 5.13-5.785.768-1.172 2.42.15 1.651 1.32M187.568 128.78c.002 10.102-9.977 11.68-17.7 10.885-6.133-.631-11.93-2.82-18.14-3.01-1.835-.058-8.918 1.342-9.333-2.132-1.01-8.433 12.327-9.115 17.402-8.836 2.873.157 5.72.507 8.6.574 3.4.08 6.622-.963 9.938-1.585 3.445-.646 6.932.322 9.024 3.297.795 1.13-.856 2.495-1.653 1.361-2.814-4-7.63-2.44-11.531-1.512-2.945.701-5.922.67-8.907.506-3.522-.192-6.981-.686-10.52-.492-1.213.066-2.401.307-3.588.565a14.39 14.39 0 0 0-3.095 1.166c-2.08.705-2.893 2.319-2.44 4.843 3.64.487 7.376-.033 11.044.434 3.587.456 7.107 1.48 10.65 2.192 6.863 1.379 18.182 1.438 18.18-8.51-.002-1.41 2.068-1.14 2.069.255M198.653 124.48c-2.858-1.544-5.38-3.97-6.525-7.197-.939-2.643 1.482-5.237 4.008-5.004 3.312.307 5.262 3.024 6.309 6.106.385 1.131 1.363 3.505.627 4.612-.9 1.354-2.52 1.711-4.003 1.883-1.337.154-1.632-2.014-.291-2.17a7.94 7.94 0 0 0 2.228-.575c.527-.221-.374-2.5-.483-2.869-.553-1.865-1.518-3.548-3.207-4.468-.766-.418-1.593-.402-2.386-.09-1.78.698-.474 2.772.142 3.758 1.079 1.723 2.658 3.044 4.39 3.98 1.18.638.384 2.679-.81 2.034M174.881 162.258c-12.106-.122-23.5-4.768-32.45-13.219-.692-.653.193-1.887.892-1.228 8.784 8.294 19.87 12.802 31.745 12.922.941.01.745 1.535-.187 1.525"/>
        <path fill="#FFF" d="M162.071 156.762c-5.064-1.494-9.55-4.132-13.399-7.877-.68-.66.204-1.896.894-1.227 3.76 3.657 8.125 6.22 13.07 7.68.904.266.33 1.688-.565 1.424M201.12 126.85c-5.202 14.576-20.495 21.444-33.964 15.32-.86-.39-.298-1.816.565-1.425 12.765 5.805 27.127-.672 32.053-14.472.332-.93 1.68-.353 1.347.577M145.01 126.153c-4.62-4.756-7.749-11.517-4.39-18.134.44-.869 1.793-.303 1.347.577-3.035 5.979-.243 12.028 3.936 16.33.659.678-.225 1.916-.893 1.227M202.24 110.507c2.42-4.05.526-8.456-1.86-11.871-.552-.794.603-1.748 1.158-.954 2.823 4.043 4.65 9.074 1.858 13.748-.504.842-1.658-.086-1.157-.923M79.121 305.677c-7.492 14.506-23.192 18.417-36.794 23.72-1.265.493-2.081-1.516-.814-2.01 12.926-5.038 28.532-8.69 35.683-22.534.639-1.236 2.571-.427 1.925.824M74.475 320.92c-5.56 4.655-11.848 7.84-18.742 9.548-1.317.326-1.596-1.847-.293-2.17 6.542-1.62 12.486-4.683 17.76-9.099 1.061-.887 2.334.834 1.275 1.721M135.654 181.666a150.709 150.709 0 0 1-17.142-11.86c-1.064-.852.21-2.608 1.276-1.754a146.813 146.813 0 0 0 16.675 11.58c1.147.682.356 2.726-.809 2.034M135.176 176.093a20.067 20.067 0 0 1-5.597-3.664c-.997-.923.269-2.686 1.276-1.753a18.332 18.332 0 0 0 5.13 3.382c1.234.542.43 2.578-.809 2.035M155.519 287.46c-5.588-1.9-10.776 1.165-15.485 4.136-1.145.722-2.433-.99-1.275-1.721 5.453-3.44 11.172-6.624 17.569-4.449 1.274.435.46 2.466-.809 2.034M150.788 281.915c-2.605.177-5.01 1.282-6.815 3.31-.916 1.03-2.579-.278-1.653-1.32 2.171-2.439 5.005-3.944 8.176-4.159 1.335-.09 1.635 2.078.292 2.17M155.692 38.746c-11.706 4.13-21.716 11.806-29.025 22.306-.8 1.149-2.453-.169-1.653-1.32 7.502-10.775 17.845-18.757 29.864-22.997 1.273-.449 2.094 1.559.814 2.01M143.267 36.618c-4.538 1.876-8.242 5.275-10.539 9.816-.628 1.243-2.56.434-1.924-.824 2.552-5.048 6.583-8.908 11.649-11.002 1.258-.52 2.072 1.49.814 2.01M32.737 42.322c-4.856.229-9.13 2.745-11.85 7.021-.752 1.183-2.401-.14-1.652-1.32 2.985-4.695 7.867-7.619 13.21-7.87 1.332-.063 1.634 2.106.292 2.17M25.199 38.942a48.925 48.925 0 0 0-6.891 6.972c-.872 1.08-2.532-.23-1.653-1.319a51.687 51.687 0 0 1 7.27-7.374c1.065-.881 2.338.84 1.274 1.721M199.838 252.929c-5.943-4.283-9.044-11.535-8.25-19.106.15-1.41 2.219-1.154 2.07.254-.718 6.842 2.102 13.24 7.456 17.098 1.104.796-.174 2.548-1.276 1.754"/>
        <g transform="scale(1 -1) rotate(83 279.658 -150.042)">
            <mask id="n" fill="#fff">
                <use xlink:href="#m"/>
            </mask>
            <path fill="#FFF" d="M263.942 105.021c1.36 2.542 3.475 6.022 6.916 6.2 5.02.256 9.838-3.534 14.011-5.77 1.849-.991.19-3.693-1.662-2.701l-7.388 3.959c-1.976 1.058-4.11 2.27-6.402.533-1.213-.919-1.945-2.519-2.631-3.8-.964-1.798-3.805-.215-2.844 1.58" mask="url(#n)"/>
            <path fill="#FFF" d="M271.561 110.575c3.463 6.698 5.057 13.592 7.274 20.677 1.93 6.17 6.662 11.545 10.337 16.84 1.163 1.676 4.016.111 2.844-1.579-4.226-6.09-8.866-11.803-10.849-18.95-1.785-6.437-3.66-12.57-6.762-18.567-.936-1.81-3.776-.225-2.844 1.579M-21.226 19.594L5.055 7.112l6.185-2.937 3.091-1.47c3.496-1.66 4.015 2.241 4.692 4.048 1.756 4.679 2.748 9.6 3.273 14.53.543 5.092.617 10.447-1.691 15.166-2.064 4.218-5.692 7.9-8.997 11.268-6.449 6.571-14.12 12.005-21.637 17.404-1.114.8-.022 2.613 1.108 1.801 8.899-6.392 17.76-12.858 25.088-20.91 3.138-3.448 5.987-7.195 7.636-11.498 1.892-4.937.998-11.186.33-16.246-.679-5.124-2.156-10.105-4.102-14.916C19.058.944 17.063-.743 14.264.458 1.871 5.778-10.168 12.015-22.333 17.793c-1.267.602-.155 2.401 1.107 1.801" mask="url(#n)"/>
            <path fill="#FFF" d="M7.614 4.75a204.185 204.185 0 0 1 5.222 41.962c.028 1.343 2.223 1.346 2.196 0a206.944 206.944 0 0 0-5.3-42.517c-.304-1.313-2.421-.756-2.118.554" mask="url(#n)"/>
        </g>
    </g>
</svg>
