<svg xmlns="http://www.w3.org/2000/svg" xmlns:xlink="http://www.w3.org/1999/xlink" width="309" height="90" viewBox="0 0 309 90">
    <defs>
        <path id="a" d="M.208 105.228h120.167V.06H.208v105.168z"/>
        <path id="c" d="M.256 113.1h71.602V.178H.256V113.1z"/>
        <path id="e" d="M.684.477v182.167h77.777V.477H.684z"/>
        <path id="g" d="M230.19 109.164H.683V.048H230.19z"/>
    </defs>
    <g fill="none" fill-rule="evenodd" opacity=".15">
        <path fill="#FFF" d="M152.323 82.42h.461c.943 0 1.73.746 1.73 1.64 0 .893-.787 1.64-1.73 1.64h-.461c-.943 0-1.73-.747-1.73-1.64 0-.894.787-1.64 1.73-1.64M157.395 73.236c2.23 0 2.23 3.28 0 3.28s-2.23-3.28 0-3.28M163.851 83.294c2.23 0 2.23 3.28 0 3.28s-2.23-3.28 0-3.28M290.66 5.229h-.462c-.942 0-1.729-.746-1.729-1.64 0-.894.787-1.64 1.73-1.64h.46c.943 0 1.73.746 1.73 1.64 0 .894-.787 1.64-1.73 1.64M306.338 4.354h-.461c-.943 0-1.73-.746-1.73-1.64 0-.894.787-1.64 1.73-1.64h.461c.942 0 1.73.746 1.73 1.64 0 .894-.788 1.64-1.73 1.64M219.647 10.695c2.23 0 2.23 3.28 0 3.28s-2.23-3.28 0-3.28M217.803-2.425c2.23 0 2.23 3.28 0 3.28-2.231 0-2.231-3.28 0-3.28M228.408-.238c2.23 0 2.23 3.28 0 3.28s-2.23-3.28 0-3.28M297.576 88.76h-.46c-.943 0-1.73-.745-1.73-1.64 0-.893.787-1.64 1.73-1.64h.46c.943 0 1.73.747 1.73 1.64 0 .895-.787 1.64-1.73 1.64M196.59 32.781h-.46c-.943 0-1.73-.746-1.73-1.64 0-.894.787-1.64 1.73-1.64h.46c.943 0 1.73.746 1.73 1.64 0 .894-.787 1.64-1.73 1.64M84.538 57.054h.461c.942 0 1.73.746 1.73 1.64 0 .894-.788 1.64-1.73 1.64h-.461c-.943 0-1.73-.746-1.73-1.64 0-.894.787-1.64 1.73-1.64M91.916 42.622c2.23 0 2.23 3.28 0 3.28s-2.23-3.28 0-3.28M59.637 44.808c2.23 0 2.23 3.28 0 3.28s-2.23-3.28 0-3.28"/>
        <g transform="matrix(1 0 0 -1 37.034 48.198)">
            <mask id="b" fill="#fff">
                <use xlink:href="#a"/>
            </mask>
            <path fill="#FFF" d="M2.764 105.97a327.088 327.088 0 0 1 21.888-54.984c2.169-4.278 4.45-8.507 6.822-12.687 2.278-4.013 4.987-7.825 9.712-9.387 4.644-1.535 10.528-.955 15.27-.214 4.984.779 9.752 2.507 14.184 4.771 1.472.752 2.782-1.372 1.309-2.124-8.473-4.328-18.65-6.81-28.299-5.427C33.334 27.396 29.482 36.4 25.233 44.333 14.803 63.806 6.494 84.295.263 105.316c-.454 1.53 2.05 2.178 2.501.654" mask="url(#b)"/>
            <path fill="#FFF" d="M70.95 33.593c5.123.765 7.79-3.704 9.699-7.515 3.442-6.87 6.402-14.339 10.64-20.8C92.656 3.192 96.34.9 98.463 3.858c1.513 2.106-.367 5.015-1.484 6.823-2.033 3.288-3.934 6.573-5.534 10.077-1.317 2.883-2.381 5.858-3.3 8.875-.778 2.562-2.018 6.147-.365 8.669 7.016 10.707 30.259 9.395 29.937 25.211-.074 3.652-2.138 7.574-3.361 10.977a4269.286 4269.286 0 0 1-12.84 35.226c-.555 1.5 1.951 2.14 2.5.654a4576.236 4576.236 0 0 0 13.279-36.443c1.232-3.428 2.607-6.792 3.016-10.414.667-5.912-4.066-10.874-8.703-14.089-3.046-2.112-6.646-3.49-10.06-4.96-3.983-1.713-10.054-3.89-11.788-8.044-.817-1.958.629-5.285 1.22-7.225.553-1.822 1.23-3.609 1.935-5.381 1.514-3.804 3.49-7.431 5.68-10.92 1.973-3.146 5.608-10.791-.578-12.51-6.677-1.857-9.703 4.681-12.019 9.303L80.161 21.34c-1.454 2.902-3.91 10.57-8.522 9.881-1.636-.245-2.338 2.125-.69 2.372" mask="url(#b)"/>
        </g>
        <path fill="#FFF" d="M74.61-9.851c.271-2.426.987-4.752 3.03-6.357 1.53-1.203 5.565 1.283 6.98 1.81 7.652 2.855 15.45 5.492 22.989 8.604 3.084 1.272.206 7.694-2.585 6.793-3.994-1.288-7.766-3.398-11.687-4.907-3.995-1.537-8.092-2.825-12.228-3.974-1.068-.297-.613-1.88.46-1.582a146.845 146.845 0 0 1 13.426 4.437c2.067.795 4.1 1.665 6.121 2.557 1.285.567 4.224 2.469 5.5.583 1.858-2.744-1.082-2.956-2.698-3.559l-13.583-5.067-7.41-2.764c-1.234-.46-2.469-.92-3.703-1.382-2.02-.753-2.795 4.021-2.883 4.808-.117 1.04-1.848 1.05-1.73 0M83.413 14.268c-1.751-4.22-3.32-8.497-4.712-12.837-.228-.71.94-1.011 1.167-.305a164.815 164.815 0 0 0 4.712 12.837c.286.69-.885.985-1.167.305M118.798 6.356l-2.744-8.206c-.236-.708.932-1.009 1.167-.306l2.745 8.207c.237.708-.932 1.009-1.168.305M167.6 55.885c-3.038-.579-4.239-4.074-5.393-6.442-1.634-3.353-2.672-7.012-3.168-10.67-1.129-8.33.136-16.635 2.787-24.605 5.94-17.858 19.456-32.377 29.343-48.28.848-1.366 3.09-.128 2.24 1.241-8.567 13.78-19.373 26.3-26.363 40.942-3.493 7.315-5.57 15.307-5.852 23.334-.132 3.756.326 7.497 1.235 11.149.482 1.935 1.197 3.821 2.018 5.647.644 1.433 1.955 4.952 3.842 5.312 1.64.313.944 2.683-.69 2.372"/>
        <g transform="matrix(1 0 0 -1 166.38 56.07)">
            <mask id="d" fill="#fff">
                <use xlink:href="#c"/>
            </mask>
            <path fill="#FFF" d="M.315 1.698c3.154 10.234 9.725 19.628 15.027 28.954a16023.937 16023.937 0 0 0 54.106 94.43c.803 1.39 3.043.15 2.239-1.242a16223.068 16223.068 0 0 1-52.81-92.15 15054.01 15054.01 0 0 1-8.417-14.82C7.55 11.741 4.548 6.664 2.816 1.044 2.348-.476-.156.17.315 1.698" mask="url(#d)"/>
        </g>
        <path fill="#FFF" d="M166.815 43.62c-6.015-15.553 2.103-30.991 9.917-44.46.377-.648 1.422-.069 1.046.58-7.666 13.213-15.704 28.298-9.796 43.575.27.697-.9.994-1.167.305M93.056 125.034a958.022 958.022 0 0 1 34.54-53.428c.61-.88 2.109-.059 1.493.827a957.768 957.768 0 0 0-34.54 53.429c-.552.918-2.046.092-1.493-.828M96.3 127.405a958.063 958.063 0 0 1 34.498-53.36c.61-.878 2.109-.058 1.494.828a957.668 957.668 0 0 0-34.5 53.36c-.551.919-2.045.092-1.493-.828"/>
        <path fill="#FFF" d="M127.78 72.648c-4.529-2.897-.873-7.168 1.385-10.233 3.905-5.302 8.065-10.434 12.386-15.436.707-.819 1.923.349 1.223 1.16a273.37 273.37 0 0 0-8.421 10.237c-1.575 2.013-9.644 10.333-5.7 12.856.918.587.054 2.009-.873 1.416M132.122 73.686c3.045 3.406 8.761-6.712 10.182-8.65 2.607-3.553 5.214-7.108 7.82-10.663.633-.861 2.133-.042 1.494.828a301898.9 301898.9 0 0 0-13.295 18.128c-1.687 2.298-4.965 4.267-7.423 1.517-.716-.802.5-1.968 1.222-1.16"/>
        <path fill="#FFF" d="M132.921 61.527l10.676-13.222.31 1.121c-.703-.437-1.478-.722-2.18-1.16-.929-.577-.064-1.998.872-1.415.702.437 1.478.722 2.181 1.159.356.222.607.754.31 1.122l-10.675 13.223c-.669.827-2.172.013-1.494-.828M138.346 65.511l5.316-7.308c1.34-1.84 2.546-4.342 4.673-5.453.26-.136.615-.163.873 0l2.1 1.33c.922.583.058 2.004-.873 1.415L149 54.587c-.939-.595-.264-.402-1.176.778-.555.717-1.068 1.468-1.6 2.2l-6.384 8.774c-.629.864-2.129.045-1.493-.828"/>
        <path fill="#FFF" d="M135.337 62.52l9.11-12.316c.273-.369.748-.53 1.183-.295 2.053 1.11 2.201 2.193 1.2 4.024-.806 1.476-2.206 2.698-3.303 3.978-1.916 2.235-3.725 4.55-5.48 6.9-.64.856-2.14.038-1.493-.827a158.334 158.334 0 0 1 5.102-6.466c1.102-1.324 2.385-2.565 3.4-3.948.79-1.076 1.296-1.382-.298-2.244.394-.098.788-.197 1.183-.294l-9.11 12.316c-.635.859-2.136.04-1.494-.828"/>
        <path fill="#FFF" d="M137.737 63.69c.415.204.78.535 1.124.831.355.307.687.627.978.99.286.357.06.917-.31 1.123-.444.246-.899.06-1.183-.295.165.206.034.048-.002.008a11.457 11.457 0 0 0-1.177-1.052c-.081-.062-.085-.065-.009-.008l-.11-.076a1.652 1.652 0 0 0-.184-.105c-.418-.206-.54-.751-.31-1.122.246-.4.764-.5 1.183-.295M135.648 63.642c-.729-.498-1.681-.586-2.411-1.085-.382-.261-.566-.708-.31-1.122.22-.358.8-.556 1.183-.294.728.498 1.68.586 2.41 1.085.382.26.566.708.31 1.122-.22.358-.799.556-1.182.294M81.284 102.616c-9.512 5.892-22.039 5.209-31.242-.909C40.852 95.6 36.52 84.374 37.41 74.024c.135-1.57 2.73-1.582 2.593 0-.835 9.732 3.04 19.553 11.35 25.56 8.186 5.918 20.082 6.198 28.622.908 1.406-.87 2.704 1.26 1.31 2.124"/>
        <path fill="#FFF" d="M37.136 73.977c-2.066-1.803-4.507-4.588-2.883-7.408 1.676-2.913 6.079-2.095 9.001-2.124 1.673-.016 1.671 2.444 0 2.46l-3.435.034c-.914.009-2.506-.25-3.139.544-1.35 1.695 1.14 3.75 2.29 4.755 1.234 1.076-.605 2.81-1.834 1.739"/>
        <path fill="#FFF" d="M42.504 64.437c9.377-6.18 20.568-2.15 29.632 2.412 4.85 2.441 9.14 4.761 11.551 9.632 2.484 5.02 1.917 10.882 1.404 16.223-.15 1.566-2.746 1.58-2.594 0 .43-4.471.786-8.891-.43-13.286-1.409-5.09-5.584-7.53-10.133-9.878-8.508-4.391-19.142-8.896-28.12-2.979-1.378.908-2.672-1.226-1.31-2.124"/>
        <path fill="#FFF" d="M78.875 90.183c-.269-7.382-5.95-15.913-12.773-19.348-.69-.347-.078-1.338.61-.99 7.244 3.645 13.089 12.53 13.374 20.338.027.74-1.185.739-1.21 0M62.315 69.055a24.15 24.15 0 0 0-5.37-1.952c-.758-.18-.436-1.286.321-1.107a25.503 25.503 0 0 1 5.66 2.068c.688.347.077 1.339-.611.99M52.029 81.928c1.115 0 1.115 1.64 0 1.64s-1.115-1.64 0-1.64M52.26 74.493c1.115 0 1.115 1.64 0 1.64-1.116 0-1.116-1.64 0-1.64M46.034 79.085c1.116 0 1.116 1.64 0 1.64-1.115 0-1.115-1.64 0-1.64M58.715 80.178c1.115 0 1.115 1.64 0 1.64s-1.115-1.64 0-1.64"/>
        <g transform="matrix(1 0 0 -1 -4.471 162.027)">
            <mask id="f" fill="#fff">
                <use xlink:href="#e"/>
            </mask>
            <path fill="#FFF" d="M-11.198 76.083c13.431-5.848 27.38 5.681 34.362 15.598 7.01 9.954 9.84 22.2 9.104 34.05-1.548 24.887-21.753 45.625-45.416 54.45-1.538.574-.869 2.953.69 2.372 26.107-9.737 46.707-32.387 47.448-59.704.343-12.624-3.86-25.786-12.108-35.758C14.82 77.344.864 68.137-12.507 73.959c-1.519.66-.2 2.78 1.309 2.124" mask="url(#f)"/>
            <path fill="#FFF" d="M-11.527 81.84c11.965-5.158 24.264 4.82 30.58 13.65 6.416 8.969 8.943 20.103 8.203 30.818-1.514 21.957-19.423 40.16-40.289 47.96-1.025.384-.58 1.97.46 1.582 22.946-8.578 41.005-28.437 41.7-52.445.333-11.486-3.663-22.957-11.09-32.005C11.166 83.028-1.107 75.556-12.4 80.423c-1.014.438-.134 1.85.873 1.417" mask="url(#f)"/>
        </g>
        <path fill="#FFF" d="M252.524 21.106c-5.097 2.056-4.114-6.626-4.28-9.134l-1.53-23.285c-.606-9.24-3.569-26.89 10.37-28.876 1.636-.233 2.34 2.137.69 2.372-11.958 1.704-9.074 17.245-8.55 25.211l1.02 15.523.51 7.762c.055.838 1.021 8.077.461 8.302 1.521-.613 2.844 1.506 1.31 2.125"/>
        <path fill="#FFF" d="M252.472 18.24c1.29-11.051-2.127-21.858-2.48-32.864-.163-5.093.3-10.665 1.673-15.605.91-3.28 3.94-5.397 7.455-4.797 1.644.28.945 2.651-.69 2.373-7.722-1.319-5.747 21.292-5.27 25.356 1 8.528 2.911 16.917 1.906 25.538-.182 1.558-2.778 1.576-2.594 0"/>
        <path fill="#FFF" d="M258.43-35.026c3.257-1.086 3.862 4.047 4.5 6.025 1.507 4.673 2.385 9.51 2.903 14.364.581 5.443.327 10.942.295 16.401-.026 4.617-1.007 12.939 3.034 16.265h-1.834c1.579-1.884.789-5.97.747-8.183-.049-2.536-.153-5.07-.272-7.605-.239-5.069-.633-10.131-1.081-15.187-.448-5.059-.99-10.11-1.55-15.157-.273-2.473-.49-4.914-1.651-7.182-1.222-2.387-3.649-2.465-6.092-2.488-1.672-.015-1.673-2.475 0-2.46 4.013.038 7.375.944 8.901 4.86 2.228 5.716 2.04 12.623 2.63 18.634a399.661 399.661 0 0 1 1.496 20.248c.16 3.378.236 6.76.265 10.142.02 2.324.004 4.253-1.559 6.118-.462.55-1.349.4-1.834 0-2.48-2.041-2.927-4.894-3.321-7.845-.673-5.047-.48-10.188-.423-15.261.06-5.269-.096-10.49-.928-15.707-.188-1.18-3.337-13.676-3.536-13.61-1.582.528-2.257-1.85-.69-2.372M261.69 108.744c-10.823.709-21.16-3.246-28.378-10.927-4.856-5.17-11.832-16.877-4.795-22.806 3.157-2.66 9.56-3.24 13.568-3.52 4.705-.329 9.304 1.78 13.01 4.312 7.604 5.195 15.573 14.926 13.558 24.288-.334 1.553-2.834.894-2.501-.654 1.707-7.933-5.142-15.548-10.976-20.443-6.83-5.732-16.119-6.26-24.252-2.562-4.819 2.19-2.22 8.91-.69 12.284 1.639 3.616 4.165 6.799 7.104 9.548 6.397 5.983 15.52 8.598 24.351 8.02 1.67-.11 1.659 2.35 0 2.46"/>
        <path fill="#FFF" d="M258.578 102.01c-5.702-1.02-12.422-2.202-16.993-5.879-4.372-3.517-6.941-8.264-8.703-13.363-.244-.705.925-1.005 1.167-.305 1.595 4.616 3.85 8.866 7.615 12.232 4.457 3.983 11.43 5.17 17.236 6.208.766.137.44 1.244-.322 1.107M235.665 78.141c1.776-.53 3.6-.711 5.453-.531.768.075.776 1.223 0 1.148a13.216 13.216 0 0 0-5.132.49c-.746.223-1.064-.885-.321-1.107M246.415 78.868c5.916 1.713 13.217 6.583 15.107 12.404.23.71-.938 1.01-1.167.305-1.741-5.361-8.78-10.015-14.261-11.601-.744-.216-.427-1.324.321-1.108"/>
        <path fill="#FFF" d="M271.967 115.678c-14.091 11.509-32.93 17.7-51.544 15.853-18.135-1.8-32.205-16.688-38.734-31.92-3.656-8.53-4.793-18.003-2.868-27.036 1.757-8.248 6.554-15.74 12.243-22.07 11.112-12.364 28.338-20.11 45.559-17.798 17.221 2.312 33.763 15.684 41.66 29.961 4.12 7.449 5.896 16.014 6.398 24.35.458 7.602-1.15 15.426-6.805 21.097-1.152 1.155-2.983-.587-1.834-1.74 7.109-7.127 6.701-17.604 5.223-26.662-1.653-10.133-6.136-19.128-13.389-26.717-6.687-6.996-14.984-12.855-24.377-16.1-9.192-3.177-18.986-2.687-28.117.364-18.48 6.176-33.933 23.776-34.913 42.546-1.002 19.186 12.914 40.255 31.784 47.397 9.653 3.653 21.388 2.496 31.21.11 9.84-2.39 18.992-7.103 26.67-13.374 1.26-1.03 3.103.702 1.834 1.74"/>
        <path fill="#FFF" d="M195.768 113.793c-7.858-12.428-15.482-25.867-10.928-40.708 3.946-12.861 15.103-23.908 26.522-31.247.925-.595 1.79.826.872 1.416-11.024 7.086-20.832 17.2-25.373 29.235-5.457 14.461 2.74 28.36 10.4 40.476.575.91-.92 1.733-1.493.828M220.455 39.896c5.46-2.3 12.007-1.42 17.807-1.088 1.108.063 1.114 1.704 0 1.64-5.365-.307-11.89-1.26-16.934.864-1.01.425-1.89-.988-.873-1.416M273.36 104.158c3.422-9.511 3.624-19.532.616-29.166-3.09-9.89-10.11-18.3-16.682-26.31-.676-.825.539-1.994 1.223-1.16 6.606 8.051 13.137 16.213 16.75 25.932 3.714 9.994 3.344 21.183-.24 31.14-.358.994-2.029.567-1.668-.436M228.856 76.817c-3.823-.496-6.058-4.277-6.403-7.69-.406-4.01 1.249-7.192 5.149-8.898 8.491-3.716 16.482 4.357 15.343 12.14-.153 1.043-1.819.597-1.667-.437.902-6.158-3.982-10.988-10.423-10.797-3.638.108-6.37 2.736-6.766 6.065-.383 3.202 1.584 7.563 5.227 8.036 1.1.142.63 1.723-.46 1.58"/>
        <path fill="#FFF" d="M239.833 63.843c2.8-2.418 7.214-.63 9.607 1.527 2.846 2.566 2.151 6.892-.522 9.238-.817.717-2.043-.44-1.223-1.16 1.904-1.67 2.362-3.933 1.152-6.12-1.153-2.083-5.713-4.12-7.791-2.325-.823.71-2.05-.447-1.223-1.16"/>
        <path fill="#FFF" d="M248.65 65.897c.065-2.862 2.703-10.368 6.469-5.852 4.523 5.424 3.754 12.357 3.975 18.878.036 1.058-1.694 1.055-1.73 0-.103-3.066-.201-6.132-.326-9.197-.089-2.205-.51-4.15-1.56-6.116a24.459 24.459 0 0 0-1.12-1.73c-1.173.333-2.346.665-3.52.996a7.853 7.853 0 0 0-.459 3.02c-.024 1.057-1.753 1.059-1.729 0M243.295 61.74c-3.174-1.565-6.575-3.568-6.806-7.31-.2-3.233 4.578-1.525 5.966-.812 1.698.87 3.175 2.168 4.574 3.408 1.14 1.01 2.418 1.968 2.313 3.571-.212 3.215-4.667 2.059-6.41 1.16-.979-.505-.106-1.922.874-1.416.918.473 1.818.984 2.931.806 2.164-.345-.636-2.695-.931-2.962-1.306-1.182-2.677-2.261-4.224-3.152a9.515 9.515 0 0 0-2.162-.894c-2.187-.617-.406 2.525-.266 2.734 1.1 1.652 3.253 2.582 5.014 3.45.99.488.115 1.903-.873 1.416M218.019 96.213c-7.896.97-10.086-6.668-10.206-12.773-.096-4.849 1.059-9.583.612-14.449-.132-1.438-1.905-6.833.77-7.49 6.495-1.597 8.308 8.75 8.577 12.737.153 2.258.153 4.515.376 6.77.264 2.66 1.39 5.076 2.194 7.605.835 2.627.413 5.441-1.712 7.36-.807.729-2.032-.429-1.222-1.16 2.856-2.58 1.174-6.19.075-9.146-.83-2.232-1.092-4.558-1.25-6.905-.188-2.768-.134-5.515-.625-8.26-.168-.94-.471-1.844-.787-2.746a11.313 11.313 0 0 0-1.208-2.304c-.75-1.556-2.09-2.036-4.02-1.44-.031 2.888.734 5.754.721 8.662-.012 2.844-.475 5.69-.691 8.524-.42 5.49.62 14.331 8.396 13.375 1.103-.136 1.09 1.506 0 1.64M190.633 89.519c-1.066-9.462 1.472-18.802 7.219-26.6.444-.601 1.494-.029 1.045.58-5.64 7.652-8.1 16.738-7.053 26.02.083.735-1.128.728-1.21 0"/>
        <path fill="#FFF" d="M193.7 78.992c.682-4.096 2.314-7.85 4.871-11.214.452-.595 1.502-.023 1.045.58-2.498 3.286-4.082 6.938-4.748 10.94-.122.73-1.288.418-1.168-.306M220.829 106.608c-11.892-2.664-18.73-13.944-15.235-25.046.223-.707 1.391-.406 1.168.306-3.312 10.52 3.129 21.11 14.388 23.633.76.17.438 1.277-.321 1.107M215.988 62.74c3.275-4.062 8.259-7.152 13.754-5.165.721.26.408 1.37-.322 1.107-4.965-1.796-9.425.963-12.387 4.637-.467.58-1.519.009-1.045-.579M69.338 28.513C57.281 24.055 52.716 12.175 47.266 2.065c-.506-.94.986-1.77 1.493-.828 5.179 9.607 9.53 21.44 21.038 25.695 1.028.38.581 1.966-.459 1.581M56.977 26.347c-4.171-3.894-7.265-8.497-9.262-13.715-.38-.997 1.291-1.422 1.668-.436 1.895 4.951 4.86 9.297 8.817 12.991.795.744-.427 1.902-1.223 1.16M171.698 60.758a118.473 118.473 0 0 1 7.625-14.519c.564-.911 2.059-.086 1.494.828a115.411 115.411 0 0 0-7.451 14.127c-.423.961-2.097.54-1.668-.436M176.009 59.85a15.774 15.774 0 0 1 2.327-4.72c.625-.867 2.125-.047 1.492.828a14.41 14.41 0 0 0-2.151 4.328c-.305 1.016-1.974.583-1.668-.436M90.91 86.405c.95-4.545-1.945-8.301-4.719-11.692-.674-.825.54-1.994 1.223-1.16 3.212 3.927 6.25 8.086 5.163 13.288-.217 1.036-1.883.596-1.667-.436M94.79 82.18c-.388-2.017-1.483-3.789-3.241-5.003-.892-.616-.03-2.04.873-1.416 2.115 1.46 3.563 3.528 4.036 5.983.198 1.033-1.468 1.476-1.668.436M285.336 62.7c-4.35-8.741-11.312-15.819-20.222-20.519-.974-.514-.103-1.93.873-1.416 9.144 4.823 16.375 12.132 20.843 21.108.473.95-1.018 1.784-1.494.828M285.807 52.798c-1.902-3.363-4.914-5.928-8.684-7.286-1.032-.371-.585-1.957.459-1.581 4.19 1.508 7.595 4.285 9.718 8.039.527.932-.965 1.76-1.493.828"/>
        <g transform="matrix(1 0 0 -1 -10 52.134)">
            <mask id="h" fill="#fff">
                <use xlink:href="#g"/>
            </mask>
            <path fill="#FFF" d="M-16.716 15.41L3.981 5.593l4.87-2.31 2.435-1.155C14.04.822 14.448 3.89 14.981 5.311c1.383 3.68 2.164 7.55 2.578 11.428.428 4.004.486 8.216-1.332 11.927-1.626 3.318-4.482 6.214-7.085 8.863-5.08 5.168-11.12 9.44-17.04 13.687-.877.63-.018 2.055.873 1.417C-.017 47.606 6.96 42.52 12.732 36.188c2.471-2.712 4.715-5.66 6.013-9.043 1.49-3.883.787-8.798.26-12.778-.534-4.03-1.698-7.947-3.23-11.73C15.01.743 13.437-.585 11.234.36 1.474 4.545-8.008 9.45-17.588 13.994c-.998.473-.122 1.888.872 1.416" mask="url(#h)"/>
            <path fill="#FFF" d="M5.996 3.735a160.383 160.383 0 0 1 4.113 33.003c.021 1.056 1.75 1.058 1.73 0A162.55 162.55 0 0 0 7.663 3.3c-.24-1.032-1.906-.594-1.668.436" mask="url(#h)"/>
        </g>
    </g>
</svg>
