<svg xmlns="http://www.w3.org/2000/svg" width="31" height="37" viewBox="0 0 31 37">
    <defs>
        <linearGradient id="a" x1="0%" y1="0%" y2="100%">
            <stop offset="0%" stop-color="#FFB904"/>
            <stop offset="100%" stop-color="#FF8302"/>
        </linearGradient>
    </defs>
    <g fill="none" fill-rule="evenodd">
        <path d="M-25-22h80v80h-80z"/>
        <path fill="url(#a)" d="M54.873 23.985a2.631 2.631 0 0 0-1.225-.957c-.327-.14-.67-.21-1.028-.21H28.162c-.358 0-.7.07-1.027.21a2.63 2.63 0 0 0-1.225.957 2.476 2.476 0 0 0-.455 1.447v30.083c0 .53.151 1.011.455 1.447.303.436.712.755 1.225.957.326.14.669.21 1.027.21.731 0 1.377-.257 1.937-.77l10.292-9.896 10.292 9.896c.545.497 1.19.746 1.937.746.39 0 .732-.061 1.027-.186a2.629 2.629 0 0 0 1.226-.957c.303-.436.455-.918.455-1.447V25.432c0-.529-.152-1.01-.455-1.447z" transform="translate(-25 -22)"/>
    </g>
</svg>
