<svg xmlns="http://www.w3.org/2000/svg" width="38" height="38" viewBox="0 0 38 38">
    <defs>
        <linearGradient id="a" x1="0%" y1="0%" y2="100%">
            <stop offset="0%" stop-color="#FBDA61"/>
            <stop offset="100%" stop-color="#F76B1C"/>
        </linearGradient>
    </defs>
    <g fill="none" fill-rule="evenodd">
        <path d="M-21-21h80v80h-80z"/>
        <path fill="url(#a)" d="M21.818 23.825c0-1.108.9-2.007 2.007-2.007h32.35c1.108 0 2.007.894 2.007 2.007V48.23l-9.941 9.952H23.826a2.008 2.008 0 0 1-2.008-2.007v-32.35zm25.455 25.449c0-1.105.892-2.001 2-2.001h8.909l-10.91 10.909v-8.908zM31.775 28.052a1.299 1.299 0 1 0 0-2.597 1.299 1.299 0 0 0 0 2.597zm16.45 0a1.299 1.299 0 1 0 0-2.597 1.299 1.299 0 0 0 0 2.597zM34.192 40.797h1.778c.925 0 1.654.218 2.188.655.534.436.801 1.029.801 1.778a2.19 2.19 0 0 1-.82 1.754c-.547.459-1.25.688-2.11.688-.854 0-1.554-.208-2.101-.625-.547-.417-.853-.974-.918-1.67h-2.1c.064 1.243.562 2.243 1.494 2.999.931.755 2.14 1.133 3.625 1.133 1.472 0 2.7-.399 3.688-1.197.986-.798 1.48-1.79 1.48-2.975 0-.95-.277-1.735-.83-2.354-.554-.619-1.31-.987-2.267-1.104v-.156c.781-.183 1.397-.566 1.846-1.148.45-.583.674-1.288.674-2.116 0-1.055-.444-1.94-1.333-2.657-.89-.717-1.988-1.075-3.298-1.075-1.406 0-2.54.365-3.4 1.094-.86.73-1.328 1.727-1.406 2.99h2.08c.06-.71.326-1.268.802-1.675.475-.408 1.094-.611 1.856-.611.769 0 1.384.203 1.847.61.462.408.693.947.693 1.617 0 .678-.238 1.231-.713 1.661-.475.43-1.091.645-1.847.645h-1.71v1.74zm13.15 6.37h2.188V33.07h-2.178l-.562.396c-.374.264-.806.571-1.294.923-.489.352-.92.66-1.295.923l-.562.396v2.15l.533-.382a7313.1 7313.1 0 0 1 2.471-1.768l.533-.38h.166v11.84z" transform="translate(-21 -21)"/>
    </g>
</svg>
