<svg xmlns="http://www.w3.org/2000/svg" width="37" height="31" viewBox="0 0 37 31">
    <defs>
        <linearGradient id="a" x1="0%" x2="101.141%" y1="0%" y2="100%">
            <stop offset="0%" stop-color="#FFB904"/>
            <stop offset="100%" stop-color="#FF8302"/>
        </linearGradient>
    </defs>
    <g fill="none" fill-rule="evenodd">
        <path d="M-22-25h80v80h-80z"/>
        <path fill="url(#a)" d="M37.91 34.09H22.99a.996.996 0 0 0-.991.997v5.28a1 1 0 0 0 .991.997h1.105l2.385 12.131c.261 1.332 1.546 2.414 2.868 2.414l21.665-.004c1.325 0 2.607-1.081 2.87-2.414l2.385-12.127h1.103a.996.996 0 0 0 .992-.996v-5.281a1 1 0 0 0-.992-.996H42.636V26.51c0-.834-.677-1.51-1.495-1.51h-1.736c-.826 0-1.496.666-1.496 1.51v7.58zm6.817 11.413a.5.5 0 0 1 .497-.503h.825c.274 0 .496.22.496.503v4.448a.5.5 0 0 1-.496.504h-.825a.497.497 0 0 1-.497-.504v-4.448zm-10.909 0a.5.5 0 0 1 .497-.503h.825c.274 0 .496.22.496.503v4.448a.5.5 0 0 1-.496.504h-.825a.497.497 0 0 1-.497-.504v-4.448zm5.455 0A.5.5 0 0 1 39.77 45h.824c.274 0 .497.22.497.503v4.448a.5.5 0 0 1-.497.504h-.824a.497.497 0 0 1-.497-.504v-4.448z" transform="translate(-22 -25)"/>
    </g>
</svg>
